{"glyphs":{"0":{"ha":1071,"x_min":43,"x_max":1028,"o":"m 519 442 q 474 360 494 397 q 426 275 453 324 q 313 367 357 304 q 276 436 290 397 q 261 524 261 475 q 276 613 261 574 q 311 682 290 651 q 426 774 356 743 l 426 597 l 519 597 l 519 890 q 375 856 435 886 q 271 781 315 825 q 199 674 228 738 q 175 606 183 642 q 167 526 167 569 q 185 410 167 460 q 229 321 203 361 q 372 194 283 240 q 403 181 388 188 q 438 171 419 175 q 474 162 456 165 q 515 158 493 158 l 518 158 l 519 158 l 519 165 l 519 442 m 543 606 q 589 686 568 650 q 636 772 610 722 q 750 679 704 742 q 787 610 772 649 q 801 522 801 572 q 787 434 801 474 q 751 365 772 394 q 701 311 729 335 q 636 272 672 288 l 636 450 l 543 450 l 543 157 q 688 192 628 161 q 792 267 747 222 q 864 374 836 311 q 887 441 878 404 q 896 519 896 478 q 878 636 896 586 q 833 726 861 686 q 770 798 806 767 q 690 851 735 829 q 625 876 664 865 q 588 884 607 881 q 547 888 568 888 q 547 888 549 888 q 543 889 544 889 l 543 882 l 543 606 m 536 32 q 347 69 436 32 q 188 176 258 106 q 80 336 117 247 q 43 525 43 425 q 80 713 43 625 q 188 872 117 801 q 347 980 258 943 q 536 1017 436 1017 q 724 980 636 1017 q 883 872 813 943 q 991 713 954 801 q 1028 525 1028 625 q 991 336 1028 425 q 883 176 954 247 q 724 69 813 106 q 536 32 636 32 m 536 969 q 363 935 444 969 q 222 840 282 900 q 126 698 161 779 q 90 525 90 617 q 126 352 90 433 q 222 210 161 271 q 363 115 282 150 q 536 79 444 79 q 708 115 628 79 q 849 210 789 150 q 945 352 910 271 q 981 525 981 433 q 945 698 981 617 q 849 840 910 779 q 708 935 789 900 q 536 969 628 969 m 333 497 q 321 481 329 486 q 303 475 311 475 q 283 482 294 475 q 276 503 276 493 q 282 524 276 514 q 294 538 286 533 q 311 543 300 543 q 329 538 319 543 q 336 522 336 531 l 324 521 l 319 529 q 311 531 318 531 q 301 528 304 531 q 293 517 296 524 q 290 503 290 506 q 294 490 290 494 q 303 486 296 486 q 313 490 308 486 q 319 500 317 493 l 333 497 m 383 506 l 358 506 l 351 476 l 338 476 l 351 542 l 365 542 l 360 517 l 385 517 l 390 542 l 404 542 l 390 476 l 376 476 l 383 506 m 418 476 l 404 476 l 418 542 l 447 542 q 458 540 457 542 q 463 538 461 539 q 465 535 464 536 q 468 525 468 526 q 463 511 468 515 q 447 504 460 507 l 453 499 q 458 489 456 494 q 463 476 460 483 l 449 476 q 446 483 447 479 q 442 493 444 488 q 438 499 439 496 q 435 503 438 501 l 429 503 l 424 503 l 418 476 m 425 514 l 432 514 l 447 514 l 453 518 q 454 525 454 519 q 451 529 454 529 q 443 531 450 531 l 429 531 l 425 514 m 469 476 l 483 542 l 496 542 l 482 476 l 469 476 m 510 499 q 513 490 510 493 q 522 486 514 486 q 532 489 529 486 q 535 494 535 492 q 533 500 535 499 q 524 504 532 500 l 513 510 q 507 515 508 511 q 506 524 506 517 q 511 538 506 532 q 528 543 517 543 q 546 538 540 543 q 553 524 553 531 l 540 522 q 536 529 540 526 q 528 532 533 532 q 521 531 522 532 q 518 525 518 528 q 519 521 518 522 q 524 519 521 519 q 529 515 526 518 l 544 508 q 549 496 549 501 q 542 482 549 489 q 522 475 535 475 q 508 478 519 475 q 500 486 501 482 q 497 497 497 489 l 510 499 m 614 476 l 600 476 l 588 542 l 601 542 l 610 492 l 636 542 l 650 542 l 614 476 m 642 476 l 656 542 l 668 542 l 654 476 l 642 476 m 668 476 l 682 542 l 694 542 l 683 488 l 717 488 l 714 476 l 668 476 m 724 476 l 736 542 l 785 542 l 783 531 l 747 531 l 744 517 l 778 517 l 776 506 l 743 506 l 739 488 l 776 488 l 774 476 l 724 476 m 285 554 l 288 572 l 293 572 l 294 571 l 297 571 l 299 571 q 300 569 299 569 l 300 567 l 300 564 l 300 560 l 297 557 q 294 556 296 556 q 290 554 293 554 l 285 554 m 289 557 l 290 557 q 293 558 293 557 l 294 558 q 296 561 296 560 q 297 565 297 563 q 296 567 297 567 q 294 568 296 568 q 293 569 294 569 l 290 569 l 289 557 m 301 554 l 306 572 l 318 572 l 317 568 l 308 568 l 307 565 l 315 565 l 315 563 l 307 563 l 306 557 l 315 557 l 314 554 l 301 554 m 318 560 l 321 560 l 321 558 q 324 557 322 557 q 326 558 326 557 q 328 560 328 558 l 326 561 l 325 563 q 322 564 322 563 q 321 565 321 564 l 319 567 q 320 569 319 568 q 321 571 321 569 q 323 572 322 571 q 325 572 324 572 q 328 572 328 572 q 331 571 329 571 q 332 567 332 569 l 329 567 l 328 568 q 325 569 328 569 q 324 568 324 569 l 324 567 q 326 565 324 565 l 329 563 q 331 560 331 563 q 329 556 331 557 q 327 555 328 556 q 324 554 326 554 q 321 556 322 554 q 318 557 319 557 l 318 560 m 333 554 l 336 572 l 340 572 l 336 554 l 333 554 m 349 564 l 356 564 l 354 557 q 351 556 354 556 q 347 554 350 554 q 345 555 346 554 q 343 556 344 556 q 340 561 340 558 q 342 567 340 565 q 344 571 342 568 q 347 572 346 571 q 350 572 347 572 q 352 572 351 572 q 354 571 353 571 q 357 567 357 568 l 354 567 l 353 568 q 350 569 351 569 q 347 568 349 568 q 344 565 344 568 l 344 561 l 344 558 q 346 558 346 558 q 347 557 346 557 l 350 557 l 351 558 l 353 561 l 349 561 l 349 564 m 371 554 l 368 554 l 364 567 l 361 554 l 358 554 l 361 572 l 364 572 l 369 560 l 371 572 l 375 572 l 371 554 m 375 554 l 378 572 l 390 572 l 390 568 l 381 568 l 381 565 l 389 565 l 389 563 l 379 563 l 379 557 l 389 557 l 388 554 l 375 554 m 390 554 l 394 572 l 399 572 q 400 572 400 572 q 401 571 400 571 l 403 571 l 404 571 l 406 569 l 406 567 q 407 564 407 565 q 406 562 407 563 q 406 560 406 561 l 403 557 q 400 556 401 556 q 396 554 399 554 l 390 554 m 394 557 l 396 557 q 399 558 399 557 l 400 558 l 403 561 l 403 565 l 403 567 l 401 568 q 400 569 400 568 q 399 569 400 569 l 397 569 l 394 557 m 414 554 l 417 572 l 424 572 l 425 571 l 428 571 l 429 569 l 429 568 l 429 565 q 426 564 428 564 l 428 563 q 429 560 429 561 q 428 557 429 558 l 426 556 q 424 555 425 556 q 422 554 424 554 l 414 554 m 418 557 l 421 557 q 424 558 424 557 l 425 558 l 425 560 l 425 561 q 422 563 424 563 l 418 563 l 418 557 m 419 565 l 422 565 l 425 565 l 426 567 q 425 568 426 568 l 422 568 l 419 568 l 419 565 m 439 554 l 436 554 l 438 561 l 432 572 l 436 572 l 439 567 l 439 564 l 440 565 l 442 568 l 444 572 l 449 572 l 440 561 l 439 554 m 543 553 l 540 553 l 539 565 l 533 553 l 529 553 l 529 571 l 532 571 l 532 558 l 539 571 l 542 571 l 543 558 l 549 571 l 551 571 l 543 553 m 565 553 l 563 553 l 561 565 l 556 553 l 551 553 l 551 571 l 554 571 l 554 558 l 561 571 l 564 571 l 565 558 l 571 571 l 574 571 l 565 553 m 588 553 l 585 553 l 583 565 l 578 553 l 574 553 l 574 571 l 576 571 l 576 558 l 583 571 l 586 571 l 588 558 l 593 571 l 596 571 l 588 553 m 593 557 l 596 557 l 596 553 l 592 553 l 593 557 m 614 558 q 611 554 614 557 q 609 553 610 554 q 607 553 608 553 q 601 556 604 553 q 600 560 600 556 q 601 565 600 564 q 604 569 601 567 q 606 570 606 569 q 608 571 607 571 q 610 570 610 571 q 611 569 610 569 l 613 569 q 615 565 615 567 l 611 565 l 611 567 q 610 567 610 567 q 608 568 610 568 q 606 567 607 567 q 604 564 604 565 q 603 560 603 563 q 603 558 603 558 q 604 557 604 558 q 607 556 606 556 q 610 557 608 557 q 611 560 610 558 l 614 558 m 628 561 l 621 561 l 619 553 l 615 553 l 619 571 l 622 571 l 621 564 l 628 564 l 629 571 l 632 571 l 629 553 l 625 553 l 628 561 m 636 553 l 632 553 l 636 571 l 643 571 q 645 570 644 571 q 647 569 646 569 l 649 568 l 649 565 q 647 563 649 563 q 644 561 647 561 l 644 558 q 647 553 647 556 l 644 553 q 643 554 643 553 q 642 556 643 556 q 642 558 642 556 q 640 560 642 560 l 639 560 l 638 560 l 636 553 m 638 563 l 640 563 l 643 563 l 644 564 l 646 565 q 644 567 646 567 q 643 568 644 568 l 639 568 l 638 563 m 650 553 l 653 571 l 657 571 l 653 553 l 650 553 m 657 558 l 660 558 l 660 557 q 661 556 661 557 q 663 556 661 556 q 665 557 665 556 q 667 558 667 557 l 665 560 l 664 561 q 661 563 661 561 q 660 564 660 563 l 658 565 q 659 567 658 567 q 660 569 660 568 q 662 570 661 569 q 664 571 663 571 q 667 570 667 571 q 669 569 668 569 q 671 565 671 568 l 668 565 l 667 567 q 664 568 667 568 q 663 567 663 568 l 663 565 q 665 564 663 564 l 668 561 q 669 558 669 561 q 668 554 669 556 q 666 553 667 554 q 663 553 665 553 q 660 554 661 553 q 657 556 658 556 l 657 558 m 681 553 l 676 553 l 674 571 l 676 571 l 679 557 l 686 571 l 689 571 l 681 553 m 688 553 l 690 571 l 694 571 l 690 553 l 688 553 m 694 553 l 697 571 l 701 571 l 699 556 l 707 556 l 706 553 l 694 553 m 708 553 l 711 571 l 724 571 l 724 568 l 715 568 l 714 564 l 722 564 l 722 561 l 714 561 l 713 556 l 722 556 l 721 553 l 708 553 m 725 557 l 728 557 l 728 553 l 724 553 l 725 557 m 746 558 q 743 554 746 557 q 741 553 742 554 q 739 553 740 553 q 733 556 736 553 q 732 560 732 556 q 733 565 732 564 q 736 569 733 567 q 738 570 738 569 q 740 571 739 571 q 742 570 742 571 q 743 569 742 569 l 744 569 q 747 565 747 567 l 743 565 l 743 567 q 742 567 742 567 q 740 568 742 568 q 739 567 739 568 q 738 567 739 567 q 736 564 736 565 q 735 560 735 563 q 736 557 735 558 q 739 556 738 556 l 740 557 l 743 560 l 746 558 m 749 560 l 749 563 l 751 567 q 754 569 751 569 q 758 571 756 571 q 763 568 760 571 q 765 564 765 565 q 765 560 765 561 q 764 558 764 560 l 760 554 q 758 553 758 554 q 756 553 757 553 q 751 554 753 553 l 749 557 l 749 560 m 751 560 q 752 558 751 558 q 753 557 753 558 q 754 556 754 557 q 756 556 754 556 q 757 556 757 556 q 758 557 757 557 l 761 560 l 761 564 q 760 567 761 565 q 757 568 758 568 q 754 565 754 568 q 751 560 751 563 m 775 553 l 772 553 l 771 568 l 769 553 l 765 553 l 769 571 l 774 571 l 775 558 l 781 571 l 785 571 l 782 553 l 779 553 l 782 567 l 775 553 z "},"1":{"ha":1071,"x_min":43,"x_max":1028,"o":"m 519 442 q 474 360 494 397 q 426 275 453 324 q 313 367 357 304 q 276 436 290 397 q 261 524 261 475 q 276 613 261 574 q 311 682 290 651 q 426 774 356 743 l 426 597 l 519 597 l 519 890 q 375 856 435 886 q 271 781 315 825 q 199 674 228 738 q 175 606 183 642 q 167 526 167 569 q 185 410 167 460 q 229 321 203 361 q 372 194 283 240 q 403 181 388 188 q 438 171 419 175 q 474 162 456 165 q 515 158 493 158 l 518 158 l 519 158 l 519 165 l 519 442 m 543 606 q 589 686 568 650 q 636 772 610 722 q 750 679 704 742 q 787 610 772 649 q 801 522 801 572 q 787 434 801 474 q 751 365 772 394 q 701 311 729 335 q 636 272 672 288 l 636 450 l 543 450 l 543 157 q 688 192 628 161 q 792 267 747 222 q 864 374 836 311 q 887 441 878 404 q 896 519 896 478 q 878 636 896 586 q 833 726 861 686 q 770 798 806 767 q 690 851 735 829 q 625 876 664 865 q 588 884 607 881 q 547 888 568 888 q 547 888 549 888 q 543 889 544 889 l 543 882 l 543 606 m 536 32 q 347 69 436 32 q 188 176 258 106 q 80 336 117 247 q 43 525 43 425 q 80 713 43 625 q 188 872 117 801 q 347 980 258 943 q 536 1017 436 1017 q 724 980 636 1017 q 883 872 813 943 q 991 713 954 801 q 1028 525 1028 625 q 991 336 1028 425 q 883 176 954 247 q 724 69 813 106 q 536 32 636 32 m 536 969 q 363 935 444 969 q 222 840 282 900 q 126 698 161 779 q 90 525 90 617 q 126 352 90 433 q 222 210 161 271 q 363 115 282 150 q 536 79 444 79 q 708 115 628 79 q 849 210 789 150 q 945 352 910 271 q 981 525 981 433 q 945 698 981 617 q 849 840 910 779 q 708 935 789 900 q 536 969 628 969 m 333 497 q 321 481 329 486 q 303 475 311 475 q 283 482 294 475 q 276 503 276 493 q 282 524 276 514 q 294 538 286 533 q 311 543 300 543 q 329 538 319 543 q 336 522 336 531 l 324 521 l 319 529 q 311 531 318 531 q 301 528 304 531 q 293 517 296 524 q 290 503 290 506 q 294 490 290 494 q 303 486 296 486 q 313 490 308 486 q 319 500 317 493 l 333 497 m 383 506 l 358 506 l 351 476 l 338 476 l 351 542 l 365 542 l 360 517 l 385 517 l 390 542 l 404 542 l 390 476 l 376 476 l 383 506 m 418 476 l 404 476 l 418 542 l 447 542 q 458 540 457 542 q 463 538 461 539 q 465 535 464 536 q 468 525 468 526 q 463 511 468 515 q 447 504 460 507 l 453 499 q 458 489 456 494 q 463 476 460 483 l 449 476 q 446 483 447 479 q 442 493 444 488 q 438 499 439 496 q 435 503 438 501 l 429 503 l 424 503 l 418 476 m 425 514 l 432 514 l 447 514 l 453 518 q 454 525 454 519 q 451 529 454 529 q 443 531 450 531 l 429 531 l 425 514 m 469 476 l 483 542 l 496 542 l 482 476 l 469 476 m 510 499 q 513 490 510 493 q 522 486 514 486 q 532 489 529 486 q 535 494 535 492 q 533 500 535 499 q 524 504 532 500 l 513 510 q 507 515 508 511 q 506 524 506 517 q 511 538 506 532 q 528 543 517 543 q 546 538 540 543 q 553 524 553 531 l 540 522 q 536 529 540 526 q 528 532 533 532 q 521 531 522 532 q 518 525 518 528 q 519 521 518 522 q 524 519 521 519 q 529 515 526 518 l 544 508 q 549 496 549 501 q 542 482 549 489 q 522 475 535 475 q 508 478 519 475 q 500 486 501 482 q 497 497 497 489 l 510 499 m 614 476 l 600 476 l 588 542 l 601 542 l 610 492 l 636 542 l 650 542 l 614 476 m 642 476 l 656 542 l 668 542 l 654 476 l 642 476 m 668 476 l 682 542 l 694 542 l 683 488 l 717 488 l 714 476 l 668 476 m 724 476 l 736 542 l 785 542 l 783 531 l 747 531 l 744 517 l 778 517 l 776 506 l 743 506 l 739 488 l 776 488 l 774 476 l 724 476 m 285 554 l 288 572 l 293 572 l 294 571 l 297 571 l 299 571 q 300 569 299 569 l 300 567 l 300 564 l 300 560 l 297 557 q 294 556 296 556 q 290 554 293 554 l 285 554 m 289 557 l 290 557 q 293 558 293 557 l 294 558 q 296 561 296 560 q 297 565 297 563 q 296 567 297 567 q 294 568 296 568 q 293 569 294 569 l 290 569 l 289 557 m 301 554 l 306 572 l 318 572 l 317 568 l 308 568 l 307 565 l 315 565 l 315 563 l 307 563 l 306 557 l 315 557 l 314 554 l 301 554 m 318 560 l 321 560 l 321 558 q 324 557 322 557 q 326 558 326 557 q 328 560 328 558 l 326 561 l 325 563 q 322 564 322 563 q 321 565 321 564 l 319 567 q 320 569 319 568 q 321 571 321 569 q 323 572 322 571 q 325 572 324 572 q 328 572 328 572 q 331 571 329 571 q 332 567 332 569 l 329 567 l 328 568 q 325 569 328 569 q 324 568 324 569 l 324 567 q 326 565 324 565 l 329 563 q 331 560 331 563 q 329 556 331 557 q 327 555 328 556 q 324 554 326 554 q 321 556 322 554 q 318 557 319 557 l 318 560 m 333 554 l 336 572 l 340 572 l 336 554 l 333 554 m 349 564 l 356 564 l 354 557 q 351 556 354 556 q 347 554 350 554 q 345 555 346 554 q 343 556 344 556 q 340 561 340 558 q 342 567 340 565 q 344 571 342 568 q 347 572 346 571 q 350 572 347 572 q 352 572 351 572 q 354 571 353 571 q 357 567 357 568 l 354 567 l 353 568 q 350 569 351 569 q 347 568 349 568 q 344 565 344 568 l 344 561 l 344 558 q 346 558 346 558 q 347 557 346 557 l 350 557 l 351 558 l 353 561 l 349 561 l 349 564 m 371 554 l 368 554 l 364 567 l 361 554 l 358 554 l 361 572 l 364 572 l 369 560 l 371 572 l 375 572 l 371 554 m 375 554 l 378 572 l 390 572 l 390 568 l 381 568 l 381 565 l 389 565 l 389 563 l 379 563 l 379 557 l 389 557 l 388 554 l 375 554 m 390 554 l 394 572 l 399 572 q 400 572 400 572 q 401 571 400 571 l 403 571 l 404 571 l 406 569 l 406 567 q 407 564 407 565 q 406 562 407 563 q 406 560 406 561 l 403 557 q 400 556 401 556 q 396 554 399 554 l 390 554 m 394 557 l 396 557 q 399 558 399 557 l 400 558 l 403 561 l 403 565 l 403 567 l 401 568 q 400 569 400 568 q 399 569 400 569 l 397 569 l 394 557 m 414 554 l 417 572 l 424 572 l 425 571 l 428 571 l 429 569 l 429 568 l 429 565 q 426 564 428 564 l 428 563 q 429 560 429 561 q 428 557 429 558 l 426 556 q 424 555 425 556 q 422 554 424 554 l 414 554 m 418 557 l 421 557 q 424 558 424 557 l 425 558 l 425 560 l 425 561 q 422 563 424 563 l 418 563 l 418 557 m 419 565 l 422 565 l 425 565 l 426 567 q 425 568 426 568 l 422 568 l 419 568 l 419 565 m 439 554 l 436 554 l 438 561 l 432 572 l 436 572 l 439 567 l 439 564 l 440 565 l 442 568 l 444 572 l 449 572 l 440 561 l 439 554 m 543 553 l 540 553 l 539 565 l 533 553 l 529 553 l 529 571 l 532 571 l 532 558 l 539 571 l 542 571 l 543 558 l 549 571 l 551 571 l 543 553 m 565 553 l 563 553 l 561 565 l 556 553 l 551 553 l 551 571 l 554 571 l 554 558 l 561 571 l 564 571 l 565 558 l 571 571 l 574 571 l 565 553 m 588 553 l 585 553 l 583 565 l 578 553 l 574 553 l 574 571 l 576 571 l 576 558 l 583 571 l 586 571 l 588 558 l 593 571 l 596 571 l 588 553 m 593 557 l 596 557 l 596 553 l 592 553 l 593 557 m 614 558 q 611 554 614 557 q 609 553 610 554 q 607 553 608 553 q 601 556 604 553 q 600 560 600 556 q 601 565 600 564 q 604 569 601 567 q 606 570 606 569 q 608 571 607 571 q 610 570 610 571 q 611 569 610 569 l 613 569 q 615 565 615 567 l 611 565 l 611 567 q 610 567 610 567 q 608 568 610 568 q 606 567 607 567 q 604 564 604 565 q 603 560 603 563 q 603 558 603 558 q 604 557 604 558 q 607 556 606 556 q 610 557 608 557 q 611 560 610 558 l 614 558 m 628 561 l 621 561 l 619 553 l 615 553 l 619 571 l 622 571 l 621 564 l 628 564 l 629 571 l 632 571 l 629 553 l 625 553 l 628 561 m 636 553 l 632 553 l 636 571 l 643 571 q 645 570 644 571 q 647 569 646 569 l 649 568 l 649 565 q 647 563 649 563 q 644 561 647 561 l 644 558 q 647 553 647 556 l 644 553 q 643 554 643 553 q 642 556 643 556 q 642 558 642 556 q 640 560 642 560 l 639 560 l 638 560 l 636 553 m 638 563 l 640 563 l 643 563 l 644 564 l 646 565 q 644 567 646 567 q 643 568 644 568 l 639 568 l 638 563 m 650 553 l 653 571 l 657 571 l 653 553 l 650 553 m 657 558 l 660 558 l 660 557 q 661 556 661 557 q 663 556 661 556 q 665 557 665 556 q 667 558 667 557 l 665 560 l 664 561 q 661 563 661 561 q 660 564 660 563 l 658 565 q 659 567 658 567 q 660 569 660 568 q 662 570 661 569 q 664 571 663 571 q 667 570 667 571 q 669 569 668 569 q 671 565 671 568 l 668 565 l 667 567 q 664 568 667 568 q 663 567 663 568 l 663 565 q 665 564 663 564 l 668 561 q 669 558 669 561 q 668 554 669 556 q 666 553 667 554 q 663 553 665 553 q 660 554 661 553 q 657 556 658 556 l 657 558 m 681 553 l 676 553 l 674 571 l 676 571 l 679 557 l 686 571 l 689 571 l 681 553 m 688 553 l 690 571 l 694 571 l 690 553 l 688 553 m 694 553 l 697 571 l 701 571 l 699 556 l 707 556 l 706 553 l 694 553 m 708 553 l 711 571 l 724 571 l 724 568 l 715 568 l 714 564 l 722 564 l 722 561 l 714 561 l 713 556 l 722 556 l 721 553 l 708 553 m 725 557 l 728 557 l 728 553 l 724 553 l 725 557 m 746 558 q 743 554 746 557 q 741 553 742 554 q 739 553 740 553 q 733 556 736 553 q 732 560 732 556 q 733 565 732 564 q 736 569 733 567 q 738 570 738 569 q 740 571 739 571 q 742 570 742 571 q 743 569 742 569 l 744 569 q 747 565 747 567 l 743 565 l 743 567 q 742 567 742 567 q 740 568 742 568 q 739 567 739 568 q 738 567 739 567 q 736 564 736 565 q 735 560 735 563 q 736 557 735 558 q 739 556 738 556 l 740 557 l 743 560 l 746 558 m 749 560 l 749 563 l 751 567 q 754 569 751 569 q 758 571 756 571 q 763 568 760 571 q 765 564 765 565 q 765 560 765 561 q 764 558 764 560 l 760 554 q 758 553 758 554 q 756 553 757 553 q 751 554 753 553 l 749 557 l 749 560 m 751 560 q 752 558 751 558 q 753 557 753 558 q 754 556 754 557 q 756 556 754 556 q 757 556 757 556 q 758 557 757 557 l 761 560 l 761 564 q 760 567 761 565 q 757 568 758 568 q 754 565 754 568 q 751 560 751 563 m 775 553 l 772 553 l 771 568 l 769 553 l 765 553 l 769 571 l 774 571 l 775 558 l 781 571 l 785 571 l 782 553 l 779 553 l 782 567 l 775 553 z "},"2":{"ha":1071,"x_min":43,"x_max":1028,"o":"m 519 442 q 474 360 494 397 q 426 275 453 324 q 313 367 357 304 q 276 436 290 397 q 261 524 261 475 q 276 613 261 574 q 311 682 290 651 q 426 774 356 743 l 426 597 l 519 597 l 519 890 q 375 856 435 886 q 271 781 315 825 q 199 674 228 738 q 175 606 183 642 q 167 526 167 569 q 185 410 167 460 q 229 321 203 361 q 372 194 283 240 q 403 181 388 188 q 438 171 419 175 q 474 162 456 165 q 515 158 493 158 l 518 158 l 519 158 l 519 165 l 519 442 m 543 606 q 589 686 568 650 q 636 772 610 722 q 750 679 704 742 q 787 610 772 649 q 801 522 801 572 q 787 434 801 474 q 751 365 772 394 q 701 311 729 335 q 636 272 672 288 l 636 450 l 543 450 l 543 157 q 688 192 628 161 q 792 267 747 222 q 864 374 836 311 q 887 441 878 404 q 896 519 896 478 q 878 636 896 586 q 833 726 861 686 q 770 798 806 767 q 690 851 735 829 q 625 876 664 865 q 588 884 607 881 q 547 888 568 888 q 547 888 549 888 q 543 889 544 889 l 543 882 l 543 606 m 536 32 q 347 69 436 32 q 188 176 258 106 q 80 336 117 247 q 43 525 43 425 q 80 713 43 625 q 188 872 117 801 q 347 980 258 943 q 536 1017 436 1017 q 724 980 636 1017 q 883 872 813 943 q 991 713 954 801 q 1028 525 1028 625 q 991 336 1028 425 q 883 176 954 247 q 724 69 813 106 q 536 32 636 32 m 536 969 q 363 935 444 969 q 222 840 282 900 q 126 698 161 779 q 90 525 90 617 q 126 352 90 433 q 222 210 161 271 q 363 115 282 150 q 536 79 444 79 q 708 115 628 79 q 849 210 789 150 q 945 352 910 271 q 981 525 981 433 q 945 698 981 617 q 849 840 910 779 q 708 935 789 900 q 536 969 628 969 m 333 497 q 321 481 329 486 q 303 475 311 475 q 283 482 294 475 q 276 503 276 493 q 282 524 276 514 q 294 538 286 533 q 311 543 300 543 q 329 538 319 543 q 336 522 336 531 l 324 521 l 319 529 q 311 531 318 531 q 301 528 304 531 q 293 517 296 524 q 290 503 290 506 q 294 490 290 494 q 303 486 296 486 q 313 490 308 486 q 319 500 317 493 l 333 497 m 383 506 l 358 506 l 351 476 l 338 476 l 351 542 l 365 542 l 360 517 l 385 517 l 390 542 l 404 542 l 390 476 l 376 476 l 383 506 m 418 476 l 404 476 l 418 542 l 447 542 q 458 540 457 542 q 463 538 461 539 q 465 535 464 536 q 468 525 468 526 q 463 511 468 515 q 447 504 460 507 l 453 499 q 458 489 456 494 q 463 476 460 483 l 449 476 q 446 483 447 479 q 442 493 444 488 q 438 499 439 496 q 435 503 438 501 l 429 503 l 424 503 l 418 476 m 425 514 l 432 514 l 447 514 l 453 518 q 454 525 454 519 q 451 529 454 529 q 443 531 450 531 l 429 531 l 425 514 m 469 476 l 483 542 l 496 542 l 482 476 l 469 476 m 510 499 q 513 490 510 493 q 522 486 514 486 q 532 489 529 486 q 535 494 535 492 q 533 500 535 499 q 524 504 532 500 l 513 510 q 507 515 508 511 q 506 524 506 517 q 511 538 506 532 q 528 543 517 543 q 546 538 540 543 q 553 524 553 531 l 540 522 q 536 529 540 526 q 528 532 533 532 q 521 531 522 532 q 518 525 518 528 q 519 521 518 522 q 524 519 521 519 q 529 515 526 518 l 544 508 q 549 496 549 501 q 542 482 549 489 q 522 475 535 475 q 508 478 519 475 q 500 486 501 482 q 497 497 497 489 l 510 499 m 614 476 l 600 476 l 588 542 l 601 542 l 610 492 l 636 542 l 650 542 l 614 476 m 642 476 l 656 542 l 668 542 l 654 476 l 642 476 m 668 476 l 682 542 l 694 542 l 683 488 l 717 488 l 714 476 l 668 476 m 724 476 l 736 542 l 785 542 l 783 531 l 747 531 l 744 517 l 778 517 l 776 506 l 743 506 l 739 488 l 776 488 l 774 476 l 724 476 m 285 554 l 288 572 l 293 572 l 294 571 l 297 571 l 299 571 q 300 569 299 569 l 300 567 l 300 564 l 300 560 l 297 557 q 294 556 296 556 q 290 554 293 554 l 285 554 m 289 557 l 290 557 q 293 558 293 557 l 294 558 q 296 561 296 560 q 297 565 297 563 q 296 567 297 567 q 294 568 296 568 q 293 569 294 569 l 290 569 l 289 557 m 301 554 l 306 572 l 318 572 l 317 568 l 308 568 l 307 565 l 315 565 l 315 563 l 307 563 l 306 557 l 315 557 l 314 554 l 301 554 m 318 560 l 321 560 l 321 558 q 324 557 322 557 q 326 558 326 557 q 328 560 328 558 l 326 561 l 325 563 q 322 564 322 563 q 321 565 321 564 l 319 567 q 320 569 319 568 q 321 571 321 569 q 323 572 322 571 q 325 572 324 572 q 328 572 328 572 q 331 571 329 571 q 332 567 332 569 l 329 567 l 328 568 q 325 569 328 569 q 324 568 324 569 l 324 567 q 326 565 324 565 l 329 563 q 331 560 331 563 q 329 556 331 557 q 327 555 328 556 q 324 554 326 554 q 321 556 322 554 q 318 557 319 557 l 318 560 m 333 554 l 336 572 l 340 572 l 336 554 l 333 554 m 349 564 l 356 564 l 354 557 q 351 556 354 556 q 347 554 350 554 q 345 555 346 554 q 343 556 344 556 q 340 561 340 558 q 342 567 340 565 q 344 571 342 568 q 347 572 346 571 q 350 572 347 572 q 352 572 351 572 q 354 571 353 571 q 357 567 357 568 l 354 567 l 353 568 q 350 569 351 569 q 347 568 349 568 q 344 565 344 568 l 344 561 l 344 558 q 346 558 346 558 q 347 557 346 557 l 350 557 l 351 558 l 353 561 l 349 561 l 349 564 m 371 554 l 368 554 l 364 567 l 361 554 l 358 554 l 361 572 l 364 572 l 369 560 l 371 572 l 375 572 l 371 554 m 375 554 l 378 572 l 390 572 l 390 568 l 381 568 l 381 565 l 389 565 l 389 563 l 379 563 l 379 557 l 389 557 l 388 554 l 375 554 m 390 554 l 394 572 l 399 572 q 400 572 400 572 q 401 571 400 571 l 403 571 l 404 571 l 406 569 l 406 567 q 407 564 407 565 q 406 562 407 563 q 406 560 406 561 l 403 557 q 400 556 401 556 q 396 554 399 554 l 390 554 m 394 557 l 396 557 q 399 558 399 557 l 400 558 l 403 561 l 403 565 l 403 567 l 401 568 q 400 569 400 568 q 399 569 400 569 l 397 569 l 394 557 m 414 554 l 417 572 l 424 572 l 425 571 l 428 571 l 429 569 l 429 568 l 429 565 q 426 564 428 564 l 428 563 q 429 560 429 561 q 428 557 429 558 l 426 556 q 424 555 425 556 q 422 554 424 554 l 414 554 m 418 557 l 421 557 q 424 558 424 557 l 425 558 l 425 560 l 425 561 q 422 563 424 563 l 418 563 l 418 557 m 419 565 l 422 565 l 425 565 l 426 567 q 425 568 426 568 l 422 568 l 419 568 l 419 565 m 439 554 l 436 554 l 438 561 l 432 572 l 436 572 l 439 567 l 439 564 l 440 565 l 442 568 l 444 572 l 449 572 l 440 561 l 439 554 m 543 553 l 540 553 l 539 565 l 533 553 l 529 553 l 529 571 l 532 571 l 532 558 l 539 571 l 542 571 l 543 558 l 549 571 l 551 571 l 543 553 m 565 553 l 563 553 l 561 565 l 556 553 l 551 553 l 551 571 l 554 571 l 554 558 l 561 571 l 564 571 l 565 558 l 571 571 l 574 571 l 565 553 m 588 553 l 585 553 l 583 565 l 578 553 l 574 553 l 574 571 l 576 571 l 576 558 l 583 571 l 586 571 l 588 558 l 593 571 l 596 571 l 588 553 m 593 557 l 596 557 l 596 553 l 592 553 l 593 557 m 614 558 q 611 554 614 557 q 609 553 610 554 q 607 553 608 553 q 601 556 604 553 q 600 560 600 556 q 601 565 600 564 q 604 569 601 567 q 606 570 606 569 q 608 571 607 571 q 610 570 610 571 q 611 569 610 569 l 613 569 q 615 565 615 567 l 611 565 l 611 567 q 610 567 610 567 q 608 568 610 568 q 606 567 607 567 q 604 564 604 565 q 603 560 603 563 q 603 558 603 558 q 604 557 604 558 q 607 556 606 556 q 610 557 608 557 q 611 560 610 558 l 614 558 m 628 561 l 621 561 l 619 553 l 615 553 l 619 571 l 622 571 l 621 564 l 628 564 l 629 571 l 632 571 l 629 553 l 625 553 l 628 561 m 636 553 l 632 553 l 636 571 l 643 571 q 645 570 644 571 q 647 569 646 569 l 649 568 l 649 565 q 647 563 649 563 q 644 561 647 561 l 644 558 q 647 553 647 556 l 644 553 q 643 554 643 553 q 642 556 643 556 q 642 558 642 556 q 640 560 642 560 l 639 560 l 638 560 l 636 553 m 638 563 l 640 563 l 643 563 l 644 564 l 646 565 q 644 567 646 567 q 643 568 644 568 l 639 568 l 638 563 m 650 553 l 653 571 l 657 571 l 653 553 l 650 553 m 657 558 l 660 558 l 660 557 q 661 556 661 557 q 663 556 661 556 q 665 557 665 556 q 667 558 667 557 l 665 560 l 664 561 q 661 563 661 561 q 660 564 660 563 l 658 565 q 659 567 658 567 q 660 569 660 568 q 662 570 661 569 q 664 571 663 571 q 667 570 667 571 q 669 569 668 569 q 671 565 671 568 l 668 565 l 667 567 q 664 568 667 568 q 663 567 663 568 l 663 565 q 665 564 663 564 l 668 561 q 669 558 669 561 q 668 554 669 556 q 666 553 667 554 q 663 553 665 553 q 660 554 661 553 q 657 556 658 556 l 657 558 m 681 553 l 676 553 l 674 571 l 676 571 l 679 557 l 686 571 l 689 571 l 681 553 m 688 553 l 690 571 l 694 571 l 690 553 l 688 553 m 694 553 l 697 571 l 701 571 l 699 556 l 707 556 l 706 553 l 694 553 m 708 553 l 711 571 l 724 571 l 724 568 l 715 568 l 714 564 l 722 564 l 722 561 l 714 561 l 713 556 l 722 556 l 721 553 l 708 553 m 725 557 l 728 557 l 728 553 l 724 553 l 725 557 m 746 558 q 743 554 746 557 q 741 553 742 554 q 739 553 740 553 q 733 556 736 553 q 732 560 732 556 q 733 565 732 564 q 736 569 733 567 q 738 570 738 569 q 740 571 739 571 q 742 570 742 571 q 743 569 742 569 l 744 569 q 747 565 747 567 l 743 565 l 743 567 q 742 567 742 567 q 740 568 742 568 q 739 567 739 568 q 738 567 739 567 q 736 564 736 565 q 735 560 735 563 q 736 557 735 558 q 739 556 738 556 l 740 557 l 743 560 l 746 558 m 749 560 l 749 563 l 751 567 q 754 569 751 569 q 758 571 756 571 q 763 568 760 571 q 765 564 765 565 q 765 560 765 561 q 764 558 764 560 l 760 554 q 758 553 758 554 q 756 553 757 553 q 751 554 753 553 l 749 557 l 749 560 m 751 560 q 752 558 751 558 q 753 557 753 558 q 754 556 754 557 q 756 556 754 556 q 757 556 757 556 q 758 557 757 557 l 761 560 l 761 564 q 760 567 761 565 q 757 568 758 568 q 754 565 754 568 q 751 560 751 563 m 775 553 l 772 553 l 771 568 l 769 553 l 765 553 l 769 571 l 774 571 l 775 558 l 781 571 l 785 571 l 782 553 l 779 553 l 782 567 l 775 553 z "},"3":{"ha":1071,"x_min":43,"x_max":1028,"o":"m 519 442 q 474 360 494 397 q 426 275 453 324 q 313 367 357 304 q 276 436 290 397 q 261 524 261 475 q 276 613 261 574 q 311 682 290 651 q 426 774 356 743 l 426 597 l 519 597 l 519 890 q 375 856 435 886 q 271 781 315 825 q 199 674 228 738 q 175 606 183 642 q 167 526 167 569 q 185 410 167 460 q 229 321 203 361 q 372 194 283 240 q 403 181 388 188 q 438 171 419 175 q 474 162 456 165 q 515 158 493 158 l 518 158 l 519 158 l 519 165 l 519 442 m 543 606 q 589 686 568 650 q 636 772 610 722 q 750 679 704 742 q 787 610 772 649 q 801 522 801 572 q 787 434 801 474 q 751 365 772 394 q 701 311 729 335 q 636 272 672 288 l 636 450 l 543 450 l 543 157 q 688 192 628 161 q 792 267 747 222 q 864 374 836 311 q 887 441 878 404 q 896 519 896 478 q 878 636 896 586 q 833 726 861 686 q 770 798 806 767 q 690 851 735 829 q 625 876 664 865 q 588 884 607 881 q 547 888 568 888 q 547 888 549 888 q 543 889 544 889 l 543 882 l 543 606 m 536 32 q 347 69 436 32 q 188 176 258 106 q 80 336 117 247 q 43 525 43 425 q 80 713 43 625 q 188 872 117 801 q 347 980 258 943 q 536 1017 436 1017 q 724 980 636 1017 q 883 872 813 943 q 991 713 954 801 q 1028 525 1028 625 q 991 336 1028 425 q 883 176 954 247 q 724 69 813 106 q 536 32 636 32 m 536 969 q 363 935 444 969 q 222 840 282 900 q 126 698 161 779 q 90 525 90 617 q 126 352 90 433 q 222 210 161 271 q 363 115 282 150 q 536 79 444 79 q 708 115 628 79 q 849 210 789 150 q 945 352 910 271 q 981 525 981 433 q 945 698 981 617 q 849 840 910 779 q 708 935 789 900 q 536 969 628 969 m 333 497 q 321 481 329 486 q 303 475 311 475 q 283 482 294 475 q 276 503 276 493 q 282 524 276 514 q 294 538 286 533 q 311 543 300 543 q 329 538 319 543 q 336 522 336 531 l 324 521 l 319 529 q 311 531 318 531 q 301 528 304 531 q 293 517 296 524 q 290 503 290 506 q 294 490 290 494 q 303 486 296 486 q 313 490 308 486 q 319 500 317 493 l 333 497 m 383 506 l 358 506 l 351 476 l 338 476 l 351 542 l 365 542 l 360 517 l 385 517 l 390 542 l 404 542 l 390 476 l 376 476 l 383 506 m 418 476 l 404 476 l 418 542 l 447 542 q 458 540 457 542 q 463 538 461 539 q 465 535 464 536 q 468 525 468 526 q 463 511 468 515 q 447 504 460 507 l 453 499 q 458 489 456 494 q 463 476 460 483 l 449 476 q 446 483 447 479 q 442 493 444 488 q 438 499 439 496 q 435 503 438 501 l 429 503 l 424 503 l 418 476 m 425 514 l 432 514 l 447 514 l 453 518 q 454 525 454 519 q 451 529 454 529 q 443 531 450 531 l 429 531 l 425 514 m 469 476 l 483 542 l 496 542 l 482 476 l 469 476 m 510 499 q 513 490 510 493 q 522 486 514 486 q 532 489 529 486 q 535 494 535 492 q 533 500 535 499 q 524 504 532 500 l 513 510 q 507 515 508 511 q 506 524 506 517 q 511 538 506 532 q 528 543 517 543 q 546 538 540 543 q 553 524 553 531 l 540 522 q 536 529 540 526 q 528 532 533 532 q 521 531 522 532 q 518 525 518 528 q 519 521 518 522 q 524 519 521 519 q 529 515 526 518 l 544 508 q 549 496 549 501 q 542 482 549 489 q 522 475 535 475 q 508 478 519 475 q 500 486 501 482 q 497 497 497 489 l 510 499 m 614 476 l 600 476 l 588 542 l 601 542 l 610 492 l 636 542 l 650 542 l 614 476 m 642 476 l 656 542 l 668 542 l 654 476 l 642 476 m 668 476 l 682 542 l 694 542 l 683 488 l 717 488 l 714 476 l 668 476 m 724 476 l 736 542 l 785 542 l 783 531 l 747 531 l 744 517 l 778 517 l 776 506 l 743 506 l 739 488 l 776 488 l 774 476 l 724 476 m 285 554 l 288 572 l 293 572 l 294 571 l 297 571 l 299 571 q 300 569 299 569 l 300 567 l 300 564 l 300 560 l 297 557 q 294 556 296 556 q 290 554 293 554 l 285 554 m 289 557 l 290 557 q 293 558 293 557 l 294 558 q 296 561 296 560 q 297 565 297 563 q 296 567 297 567 q 294 568 296 568 q 293 569 294 569 l 290 569 l 289 557 m 301 554 l 306 572 l 318 572 l 317 568 l 308 568 l 307 565 l 315 565 l 315 563 l 307 563 l 306 557 l 315 557 l 314 554 l 301 554 m 318 560 l 321 560 l 321 558 q 324 557 322 557 q 326 558 326 557 q 328 560 328 558 l 326 561 l 325 563 q 322 564 322 563 q 321 565 321 564 l 319 567 q 320 569 319 568 q 321 571 321 569 q 323 572 322 571 q 325 572 324 572 q 328 572 328 572 q 331 571 329 571 q 332 567 332 569 l 329 567 l 328 568 q 325 569 328 569 q 324 568 324 569 l 324 567 q 326 565 324 565 l 329 563 q 331 560 331 563 q 329 556 331 557 q 327 555 328 556 q 324 554 326 554 q 321 556 322 554 q 318 557 319 557 l 318 560 m 333 554 l 336 572 l 340 572 l 336 554 l 333 554 m 349 564 l 356 564 l 354 557 q 351 556 354 556 q 347 554 350 554 q 345 555 346 554 q 343 556 344 556 q 340 561 340 558 q 342 567 340 565 q 344 571 342 568 q 347 572 346 571 q 350 572 347 572 q 352 572 351 572 q 354 571 353 571 q 357 567 357 568 l 354 567 l 353 568 q 350 569 351 569 q 347 568 349 568 q 344 565 344 568 l 344 561 l 344 558 q 346 558 346 558 q 347 557 346 557 l 350 557 l 351 558 l 353 561 l 349 561 l 349 564 m 371 554 l 368 554 l 364 567 l 361 554 l 358 554 l 361 572 l 364 572 l 369 560 l 371 572 l 375 572 l 371 554 m 375 554 l 378 572 l 390 572 l 390 568 l 381 568 l 381 565 l 389 565 l 389 563 l 379 563 l 379 557 l 389 557 l 388 554 l 375 554 m 390 554 l 394 572 l 399 572 q 400 572 400 572 q 401 571 400 571 l 403 571 l 404 571 l 406 569 l 406 567 q 407 564 407 565 q 406 562 407 563 q 406 560 406 561 l 403 557 q 400 556 401 556 q 396 554 399 554 l 390 554 m 394 557 l 396 557 q 399 558 399 557 l 400 558 l 403 561 l 403 565 l 403 567 l 401 568 q 400 569 400 568 q 399 569 400 569 l 397 569 l 394 557 m 414 554 l 417 572 l 424 572 l 425 571 l 428 571 l 429 569 l 429 568 l 429 565 q 426 564 428 564 l 428 563 q 429 560 429 561 q 428 557 429 558 l 426 556 q 424 555 425 556 q 422 554 424 554 l 414 554 m 418 557 l 421 557 q 424 558 424 557 l 425 558 l 425 560 l 425 561 q 422 563 424 563 l 418 563 l 418 557 m 419 565 l 422 565 l 425 565 l 426 567 q 425 568 426 568 l 422 568 l 419 568 l 419 565 m 439 554 l 436 554 l 438 561 l 432 572 l 436 572 l 439 567 l 439 564 l 440 565 l 442 568 l 444 572 l 449 572 l 440 561 l 439 554 m 543 553 l 540 553 l 539 565 l 533 553 l 529 553 l 529 571 l 532 571 l 532 558 l 539 571 l 542 571 l 543 558 l 549 571 l 551 571 l 543 553 m 565 553 l 563 553 l 561 565 l 556 553 l 551 553 l 551 571 l 554 571 l 554 558 l 561 571 l 564 571 l 565 558 l 571 571 l 574 571 l 565 553 m 588 553 l 585 553 l 583 565 l 578 553 l 574 553 l 574 571 l 576 571 l 576 558 l 583 571 l 586 571 l 588 558 l 593 571 l 596 571 l 588 553 m 593 557 l 596 557 l 596 553 l 592 553 l 593 557 m 614 558 q 611 554 614 557 q 609 553 610 554 q 607 553 608 553 q 601 556 604 553 q 600 560 600 556 q 601 565 600 564 q 604 569 601 567 q 606 570 606 569 q 608 571 607 571 q 610 570 610 571 q 611 569 610 569 l 613 569 q 615 565 615 567 l 611 565 l 611 567 q 610 567 610 567 q 608 568 610 568 q 606 567 607 567 q 604 564 604 565 q 603 560 603 563 q 603 558 603 558 q 604 557 604 558 q 607 556 606 556 q 610 557 608 557 q 611 560 610 558 l 614 558 m 628 561 l 621 561 l 619 553 l 615 553 l 619 571 l 622 571 l 621 564 l 628 564 l 629 571 l 632 571 l 629 553 l 625 553 l 628 561 m 636 553 l 632 553 l 636 571 l 643 571 q 645 570 644 571 q 647 569 646 569 l 649 568 l 649 565 q 647 563 649 563 q 644 561 647 561 l 644 558 q 647 553 647 556 l 644 553 q 643 554 643 553 q 642 556 643 556 q 642 558 642 556 q 640 560 642 560 l 639 560 l 638 560 l 636 553 m 638 563 l 640 563 l 643 563 l 644 564 l 646 565 q 644 567 646 567 q 643 568 644 568 l 639 568 l 638 563 m 650 553 l 653 571 l 657 571 l 653 553 l 650 553 m 657 558 l 660 558 l 660 557 q 661 556 661 557 q 663 556 661 556 q 665 557 665 556 q 667 558 667 557 l 665 560 l 664 561 q 661 563 661 561 q 660 564 660 563 l 658 565 q 659 567 658 567 q 660 569 660 568 q 662 570 661 569 q 664 571 663 571 q 667 570 667 571 q 669 569 668 569 q 671 565 671 568 l 668 565 l 667 567 q 664 568 667 568 q 663 567 663 568 l 663 565 q 665 564 663 564 l 668 561 q 669 558 669 561 q 668 554 669 556 q 666 553 667 554 q 663 553 665 553 q 660 554 661 553 q 657 556 658 556 l 657 558 m 681 553 l 676 553 l 674 571 l 676 571 l 679 557 l 686 571 l 689 571 l 681 553 m 688 553 l 690 571 l 694 571 l 690 553 l 688 553 m 694 553 l 697 571 l 701 571 l 699 556 l 707 556 l 706 553 l 694 553 m 708 553 l 711 571 l 724 571 l 724 568 l 715 568 l 714 564 l 722 564 l 722 561 l 714 561 l 713 556 l 722 556 l 721 553 l 708 553 m 725 557 l 728 557 l 728 553 l 724 553 l 725 557 m 746 558 q 743 554 746 557 q 741 553 742 554 q 739 553 740 553 q 733 556 736 553 q 732 560 732 556 q 733 565 732 564 q 736 569 733 567 q 738 570 738 569 q 740 571 739 571 q 742 570 742 571 q 743 569 742 569 l 744 569 q 747 565 747 567 l 743 565 l 743 567 q 742 567 742 567 q 740 568 742 568 q 739 567 739 568 q 738 567 739 567 q 736 564 736 565 q 735 560 735 563 q 736 557 735 558 q 739 556 738 556 l 740 557 l 743 560 l 746 558 m 749 560 l 749 563 l 751 567 q 754 569 751 569 q 758 571 756 571 q 763 568 760 571 q 765 564 765 565 q 765 560 765 561 q 764 558 764 560 l 760 554 q 758 553 758 554 q 756 553 757 553 q 751 554 753 553 l 749 557 l 749 560 m 751 560 q 752 558 751 558 q 753 557 753 558 q 754 556 754 557 q 756 556 754 556 q 757 556 757 556 q 758 557 757 557 l 761 560 l 761 564 q 760 567 761 565 q 757 568 758 568 q 754 565 754 568 q 751 560 751 563 m 775 553 l 772 553 l 771 568 l 769 553 l 765 553 l 769 571 l 774 571 l 775 558 l 781 571 l 785 571 l 782 553 l 779 553 l 782 567 l 775 553 z "},"4":{"ha":1071,"x_min":43,"x_max":1028,"o":"m 519 442 q 474 360 494 397 q 426 275 453 324 q 313 367 357 304 q 276 436 290 397 q 261 524 261 475 q 276 613 261 574 q 311 682 290 651 q 426 774 356 743 l 426 597 l 519 597 l 519 890 q 375 856 435 886 q 271 781 315 825 q 199 674 228 738 q 175 606 183 642 q 167 526 167 569 q 185 410 167 460 q 229 321 203 361 q 372 194 283 240 q 403 181 388 188 q 438 171 419 175 q 474 162 456 165 q 515 158 493 158 l 518 158 l 519 158 l 519 165 l 519 442 m 543 606 q 589 686 568 650 q 636 772 610 722 q 750 679 704 742 q 787 610 772 649 q 801 522 801 572 q 787 434 801 474 q 751 365 772 394 q 701 311 729 335 q 636 272 672 288 l 636 450 l 543 450 l 543 157 q 688 192 628 161 q 792 267 747 222 q 864 374 836 311 q 887 441 878 404 q 896 519 896 478 q 878 636 896 586 q 833 726 861 686 q 770 798 806 767 q 690 851 735 829 q 625 876 664 865 q 588 884 607 881 q 547 888 568 888 q 547 888 549 888 q 543 889 544 889 l 543 882 l 543 606 m 536 32 q 347 69 436 32 q 188 176 258 106 q 80 336 117 247 q 43 525 43 425 q 80 713 43 625 q 188 872 117 801 q 347 980 258 943 q 536 1017 436 1017 q 724 980 636 1017 q 883 872 813 943 q 991 713 954 801 q 1028 525 1028 625 q 991 336 1028 425 q 883 176 954 247 q 724 69 813 106 q 536 32 636 32 m 536 969 q 363 935 444 969 q 222 840 282 900 q 126 698 161 779 q 90 525 90 617 q 126 352 90 433 q 222 210 161 271 q 363 115 282 150 q 536 79 444 79 q 708 115 628 79 q 849 210 789 150 q 945 352 910 271 q 981 525 981 433 q 945 698 981 617 q 849 840 910 779 q 708 935 789 900 q 536 969 628 969 m 333 497 q 321 481 329 486 q 303 475 311 475 q 283 482 294 475 q 276 503 276 493 q 282 524 276 514 q 294 538 286 533 q 311 543 300 543 q 329 538 319 543 q 336 522 336 531 l 324 521 l 319 529 q 311 531 318 531 q 301 528 304 531 q 293 517 296 524 q 290 503 290 506 q 294 490 290 494 q 303 486 296 486 q 313 490 308 486 q 319 500 317 493 l 333 497 m 383 506 l 358 506 l 351 476 l 338 476 l 351 542 l 365 542 l 360 517 l 385 517 l 390 542 l 404 542 l 390 476 l 376 476 l 383 506 m 418 476 l 404 476 l 418 542 l 447 542 q 458 540 457 542 q 463 538 461 539 q 465 535 464 536 q 468 525 468 526 q 463 511 468 515 q 447 504 460 507 l 453 499 q 458 489 456 494 q 463 476 460 483 l 449 476 q 446 483 447 479 q 442 493 444 488 q 438 499 439 496 q 435 503 438 501 l 429 503 l 424 503 l 418 476 m 425 514 l 432 514 l 447 514 l 453 518 q 454 525 454 519 q 451 529 454 529 q 443 531 450 531 l 429 531 l 425 514 m 469 476 l 483 542 l 496 542 l 482 476 l 469 476 m 510 499 q 513 490 510 493 q 522 486 514 486 q 532 489 529 486 q 535 494 535 492 q 533 500 535 499 q 524 504 532 500 l 513 510 q 507 515 508 511 q 506 524 506 517 q 511 538 506 532 q 528 543 517 543 q 546 538 540 543 q 553 524 553 531 l 540 522 q 536 529 540 526 q 528 532 533 532 q 521 531 522 532 q 518 525 518 528 q 519 521 518 522 q 524 519 521 519 q 529 515 526 518 l 544 508 q 549 496 549 501 q 542 482 549 489 q 522 475 535 475 q 508 478 519 475 q 500 486 501 482 q 497 497 497 489 l 510 499 m 614 476 l 600 476 l 588 542 l 601 542 l 610 492 l 636 542 l 650 542 l 614 476 m 642 476 l 656 542 l 668 542 l 654 476 l 642 476 m 668 476 l 682 542 l 694 542 l 683 488 l 717 488 l 714 476 l 668 476 m 724 476 l 736 542 l 785 542 l 783 531 l 747 531 l 744 517 l 778 517 l 776 506 l 743 506 l 739 488 l 776 488 l 774 476 l 724 476 m 285 554 l 288 572 l 293 572 l 294 571 l 297 571 l 299 571 q 300 569 299 569 l 300 567 l 300 564 l 300 560 l 297 557 q 294 556 296 556 q 290 554 293 554 l 285 554 m 289 557 l 290 557 q 293 558 293 557 l 294 558 q 296 561 296 560 q 297 565 297 563 q 296 567 297 567 q 294 568 296 568 q 293 569 294 569 l 290 569 l 289 557 m 301 554 l 306 572 l 318 572 l 317 568 l 308 568 l 307 565 l 315 565 l 315 563 l 307 563 l 306 557 l 315 557 l 314 554 l 301 554 m 318 560 l 321 560 l 321 558 q 324 557 322 557 q 326 558 326 557 q 328 560 328 558 l 326 561 l 325 563 q 322 564 322 563 q 321 565 321 564 l 319 567 q 320 569 319 568 q 321 571 321 569 q 323 572 322 571 q 325 572 324 572 q 328 572 328 572 q 331 571 329 571 q 332 567 332 569 l 329 567 l 328 568 q 325 569 328 569 q 324 568 324 569 l 324 567 q 326 565 324 565 l 329 563 q 331 560 331 563 q 329 556 331 557 q 327 555 328 556 q 324 554 326 554 q 321 556 322 554 q 318 557 319 557 l 318 560 m 333 554 l 336 572 l 340 572 l 336 554 l 333 554 m 349 564 l 356 564 l 354 557 q 351 556 354 556 q 347 554 350 554 q 345 555 346 554 q 343 556 344 556 q 340 561 340 558 q 342 567 340 565 q 344 571 342 568 q 347 572 346 571 q 350 572 347 572 q 352 572 351 572 q 354 571 353 571 q 357 567 357 568 l 354 567 l 353 568 q 350 569 351 569 q 347 568 349 568 q 344 565 344 568 l 344 561 l 344 558 q 346 558 346 558 q 347 557 346 557 l 350 557 l 351 558 l 353 561 l 349 561 l 349 564 m 371 554 l 368 554 l 364 567 l 361 554 l 358 554 l 361 572 l 364 572 l 369 560 l 371 572 l 375 572 l 371 554 m 375 554 l 378 572 l 390 572 l 390 568 l 381 568 l 381 565 l 389 565 l 389 563 l 379 563 l 379 557 l 389 557 l 388 554 l 375 554 m 390 554 l 394 572 l 399 572 q 400 572 400 572 q 401 571 400 571 l 403 571 l 404 571 l 406 569 l 406 567 q 407 564 407 565 q 406 562 407 563 q 406 560 406 561 l 403 557 q 400 556 401 556 q 396 554 399 554 l 390 554 m 394 557 l 396 557 q 399 558 399 557 l 400 558 l 403 561 l 403 565 l 403 567 l 401 568 q 400 569 400 568 q 399 569 400 569 l 397 569 l 394 557 m 414 554 l 417 572 l 424 572 l 425 571 l 428 571 l 429 569 l 429 568 l 429 565 q 426 564 428 564 l 428 563 q 429 560 429 561 q 428 557 429 558 l 426 556 q 424 555 425 556 q 422 554 424 554 l 414 554 m 418 557 l 421 557 q 424 558 424 557 l 425 558 l 425 560 l 425 561 q 422 563 424 563 l 418 563 l 418 557 m 419 565 l 422 565 l 425 565 l 426 567 q 425 568 426 568 l 422 568 l 419 568 l 419 565 m 439 554 l 436 554 l 438 561 l 432 572 l 436 572 l 439 567 l 439 564 l 440 565 l 442 568 l 444 572 l 449 572 l 440 561 l 439 554 m 543 553 l 540 553 l 539 565 l 533 553 l 529 553 l 529 571 l 532 571 l 532 558 l 539 571 l 542 571 l 543 558 l 549 571 l 551 571 l 543 553 m 565 553 l 563 553 l 561 565 l 556 553 l 551 553 l 551 571 l 554 571 l 554 558 l 561 571 l 564 571 l 565 558 l 571 571 l 574 571 l 565 553 m 588 553 l 585 553 l 583 565 l 578 553 l 574 553 l 574 571 l 576 571 l 576 558 l 583 571 l 586 571 l 588 558 l 593 571 l 596 571 l 588 553 m 593 557 l 596 557 l 596 553 l 592 553 l 593 557 m 614 558 q 611 554 614 557 q 609 553 610 554 q 607 553 608 553 q 601 556 604 553 q 600 560 600 556 q 601 565 600 564 q 604 569 601 567 q 606 570 606 569 q 608 571 607 571 q 610 570 610 571 q 611 569 610 569 l 613 569 q 615 565 615 567 l 611 565 l 611 567 q 610 567 610 567 q 608 568 610 568 q 606 567 607 567 q 604 564 604 565 q 603 560 603 563 q 603 558 603 558 q 604 557 604 558 q 607 556 606 556 q 610 557 608 557 q 611 560 610 558 l 614 558 m 628 561 l 621 561 l 619 553 l 615 553 l 619 571 l 622 571 l 621 564 l 628 564 l 629 571 l 632 571 l 629 553 l 625 553 l 628 561 m 636 553 l 632 553 l 636 571 l 643 571 q 645 570 644 571 q 647 569 646 569 l 649 568 l 649 565 q 647 563 649 563 q 644 561 647 561 l 644 558 q 647 553 647 556 l 644 553 q 643 554 643 553 q 642 556 643 556 q 642 558 642 556 q 640 560 642 560 l 639 560 l 638 560 l 636 553 m 638 563 l 640 563 l 643 563 l 644 564 l 646 565 q 644 567 646 567 q 643 568 644 568 l 639 568 l 638 563 m 650 553 l 653 571 l 657 571 l 653 553 l 650 553 m 657 558 l 660 558 l 660 557 q 661 556 661 557 q 663 556 661 556 q 665 557 665 556 q 667 558 667 557 l 665 560 l 664 561 q 661 563 661 561 q 660 564 660 563 l 658 565 q 659 567 658 567 q 660 569 660 568 q 662 570 661 569 q 664 571 663 571 q 667 570 667 571 q 669 569 668 569 q 671 565 671 568 l 668 565 l 667 567 q 664 568 667 568 q 663 567 663 568 l 663 565 q 665 564 663 564 l 668 561 q 669 558 669 561 q 668 554 669 556 q 666 553 667 554 q 663 553 665 553 q 660 554 661 553 q 657 556 658 556 l 657 558 m 681 553 l 676 553 l 674 571 l 676 571 l 679 557 l 686 571 l 689 571 l 681 553 m 688 553 l 690 571 l 694 571 l 690 553 l 688 553 m 694 553 l 697 571 l 701 571 l 699 556 l 707 556 l 706 553 l 694 553 m 708 553 l 711 571 l 724 571 l 724 568 l 715 568 l 714 564 l 722 564 l 722 561 l 714 561 l 713 556 l 722 556 l 721 553 l 708 553 m 725 557 l 728 557 l 728 553 l 724 553 l 725 557 m 746 558 q 743 554 746 557 q 741 553 742 554 q 739 553 740 553 q 733 556 736 553 q 732 560 732 556 q 733 565 732 564 q 736 569 733 567 q 738 570 738 569 q 740 571 739 571 q 742 570 742 571 q 743 569 742 569 l 744 569 q 747 565 747 567 l 743 565 l 743 567 q 742 567 742 567 q 740 568 742 568 q 739 567 739 568 q 738 567 739 567 q 736 564 736 565 q 735 560 735 563 q 736 557 735 558 q 739 556 738 556 l 740 557 l 743 560 l 746 558 m 749 560 l 749 563 l 751 567 q 754 569 751 569 q 758 571 756 571 q 763 568 760 571 q 765 564 765 565 q 765 560 765 561 q 764 558 764 560 l 760 554 q 758 553 758 554 q 756 553 757 553 q 751 554 753 553 l 749 557 l 749 560 m 751 560 q 752 558 751 558 q 753 557 753 558 q 754 556 754 557 q 756 556 754 556 q 757 556 757 556 q 758 557 757 557 l 761 560 l 761 564 q 760 567 761 565 q 757 568 758 568 q 754 565 754 568 q 751 560 751 563 m 775 553 l 772 553 l 771 568 l 769 553 l 765 553 l 769 571 l 774 571 l 775 558 l 781 571 l 785 571 l 782 553 l 779 553 l 782 567 l 775 553 z "},"5":{"ha":1071,"x_min":43,"x_max":1028,"o":"m 519 442 q 474 360 494 397 q 426 275 453 324 q 313 367 357 304 q 276 436 290 397 q 261 524 261 475 q 276 613 261 574 q 311 682 290 651 q 426 774 356 743 l 426 597 l 519 597 l 519 890 q 375 856 435 886 q 271 781 315 825 q 199 674 228 738 q 175 606 183 642 q 167 526 167 569 q 185 410 167 460 q 229 321 203 361 q 372 194 283 240 q 403 181 388 188 q 438 171 419 175 q 474 162 456 165 q 515 158 493 158 l 518 158 l 519 158 l 519 165 l 519 442 m 543 606 q 589 686 568 650 q 636 772 610 722 q 750 679 704 742 q 787 610 772 649 q 801 522 801 572 q 787 434 801 474 q 751 365 772 394 q 701 311 729 335 q 636 272 672 288 l 636 450 l 543 450 l 543 157 q 688 192 628 161 q 792 267 747 222 q 864 374 836 311 q 887 441 878 404 q 896 519 896 478 q 878 636 896 586 q 833 726 861 686 q 770 798 806 767 q 690 851 735 829 q 625 876 664 865 q 588 884 607 881 q 547 888 568 888 q 547 888 549 888 q 543 889 544 889 l 543 882 l 543 606 m 536 32 q 347 69 436 32 q 188 176 258 106 q 80 336 117 247 q 43 525 43 425 q 80 713 43 625 q 188 872 117 801 q 347 980 258 943 q 536 1017 436 1017 q 724 980 636 1017 q 883 872 813 943 q 991 713 954 801 q 1028 525 1028 625 q 991 336 1028 425 q 883 176 954 247 q 724 69 813 106 q 536 32 636 32 m 536 969 q 363 935 444 969 q 222 840 282 900 q 126 698 161 779 q 90 525 90 617 q 126 352 90 433 q 222 210 161 271 q 363 115 282 150 q 536 79 444 79 q 708 115 628 79 q 849 210 789 150 q 945 352 910 271 q 981 525 981 433 q 945 698 981 617 q 849 840 910 779 q 708 935 789 900 q 536 969 628 969 m 333 497 q 321 481 329 486 q 303 475 311 475 q 283 482 294 475 q 276 503 276 493 q 282 524 276 514 q 294 538 286 533 q 311 543 300 543 q 329 538 319 543 q 336 522 336 531 l 324 521 l 319 529 q 311 531 318 531 q 301 528 304 531 q 293 517 296 524 q 290 503 290 506 q 294 490 290 494 q 303 486 296 486 q 313 490 308 486 q 319 500 317 493 l 333 497 m 383 506 l 358 506 l 351 476 l 338 476 l 351 542 l 365 542 l 360 517 l 385 517 l 390 542 l 404 542 l 390 476 l 376 476 l 383 506 m 418 476 l 404 476 l 418 542 l 447 542 q 458 540 457 542 q 463 538 461 539 q 465 535 464 536 q 468 525 468 526 q 463 511 468 515 q 447 504 460 507 l 453 499 q 458 489 456 494 q 463 476 460 483 l 449 476 q 446 483 447 479 q 442 493 444 488 q 438 499 439 496 q 435 503 438 501 l 429 503 l 424 503 l 418 476 m 425 514 l 432 514 l 447 514 l 453 518 q 454 525 454 519 q 451 529 454 529 q 443 531 450 531 l 429 531 l 425 514 m 469 476 l 483 542 l 496 542 l 482 476 l 469 476 m 510 499 q 513 490 510 493 q 522 486 514 486 q 532 489 529 486 q 535 494 535 492 q 533 500 535 499 q 524 504 532 500 l 513 510 q 507 515 508 511 q 506 524 506 517 q 511 538 506 532 q 528 543 517 543 q 546 538 540 543 q 553 524 553 531 l 540 522 q 536 529 540 526 q 528 532 533 532 q 521 531 522 532 q 518 525 518 528 q 519 521 518 522 q 524 519 521 519 q 529 515 526 518 l 544 508 q 549 496 549 501 q 542 482 549 489 q 522 475 535 475 q 508 478 519 475 q 500 486 501 482 q 497 497 497 489 l 510 499 m 614 476 l 600 476 l 588 542 l 601 542 l 610 492 l 636 542 l 650 542 l 614 476 m 642 476 l 656 542 l 668 542 l 654 476 l 642 476 m 668 476 l 682 542 l 694 542 l 683 488 l 717 488 l 714 476 l 668 476 m 724 476 l 736 542 l 785 542 l 783 531 l 747 531 l 744 517 l 778 517 l 776 506 l 743 506 l 739 488 l 776 488 l 774 476 l 724 476 m 285 554 l 288 572 l 293 572 l 294 571 l 297 571 l 299 571 q 300 569 299 569 l 300 567 l 300 564 l 300 560 l 297 557 q 294 556 296 556 q 290 554 293 554 l 285 554 m 289 557 l 290 557 q 293 558 293 557 l 294 558 q 296 561 296 560 q 297 565 297 563 q 296 567 297 567 q 294 568 296 568 q 293 569 294 569 l 290 569 l 289 557 m 301 554 l 306 572 l 318 572 l 317 568 l 308 568 l 307 565 l 315 565 l 315 563 l 307 563 l 306 557 l 315 557 l 314 554 l 301 554 m 318 560 l 321 560 l 321 558 q 324 557 322 557 q 326 558 326 557 q 328 560 328 558 l 326 561 l 325 563 q 322 564 322 563 q 321 565 321 564 l 319 567 q 320 569 319 568 q 321 571 321 569 q 323 572 322 571 q 325 572 324 572 q 328 572 328 572 q 331 571 329 571 q 332 567 332 569 l 329 567 l 328 568 q 325 569 328 569 q 324 568 324 569 l 324 567 q 326 565 324 565 l 329 563 q 331 560 331 563 q 329 556 331 557 q 327 555 328 556 q 324 554 326 554 q 321 556 322 554 q 318 557 319 557 l 318 560 m 333 554 l 336 572 l 340 572 l 336 554 l 333 554 m 349 564 l 356 564 l 354 557 q 351 556 354 556 q 347 554 350 554 q 345 555 346 554 q 343 556 344 556 q 340 561 340 558 q 342 567 340 565 q 344 571 342 568 q 347 572 346 571 q 350 572 347 572 q 352 572 351 572 q 354 571 353 571 q 357 567 357 568 l 354 567 l 353 568 q 350 569 351 569 q 347 568 349 568 q 344 565 344 568 l 344 561 l 344 558 q 346 558 346 558 q 347 557 346 557 l 350 557 l 351 558 l 353 561 l 349 561 l 349 564 m 371 554 l 368 554 l 364 567 l 361 554 l 358 554 l 361 572 l 364 572 l 369 560 l 371 572 l 375 572 l 371 554 m 375 554 l 378 572 l 390 572 l 390 568 l 381 568 l 381 565 l 389 565 l 389 563 l 379 563 l 379 557 l 389 557 l 388 554 l 375 554 m 390 554 l 394 572 l 399 572 q 400 572 400 572 q 401 571 400 571 l 403 571 l 404 571 l 406 569 l 406 567 q 407 564 407 565 q 406 562 407 563 q 406 560 406 561 l 403 557 q 400 556 401 556 q 396 554 399 554 l 390 554 m 394 557 l 396 557 q 399 558 399 557 l 400 558 l 403 561 l 403 565 l 403 567 l 401 568 q 400 569 400 568 q 399 569 400 569 l 397 569 l 394 557 m 414 554 l 417 572 l 424 572 l 425 571 l 428 571 l 429 569 l 429 568 l 429 565 q 426 564 428 564 l 428 563 q 429 560 429 561 q 428 557 429 558 l 426 556 q 424 555 425 556 q 422 554 424 554 l 414 554 m 418 557 l 421 557 q 424 558 424 557 l 425 558 l 425 560 l 425 561 q 422 563 424 563 l 418 563 l 418 557 m 419 565 l 422 565 l 425 565 l 426 567 q 425 568 426 568 l 422 568 l 419 568 l 419 565 m 439 554 l 436 554 l 438 561 l 432 572 l 436 572 l 439 567 l 439 564 l 440 565 l 442 568 l 444 572 l 449 572 l 440 561 l 439 554 m 543 553 l 540 553 l 539 565 l 533 553 l 529 553 l 529 571 l 532 571 l 532 558 l 539 571 l 542 571 l 543 558 l 549 571 l 551 571 l 543 553 m 565 553 l 563 553 l 561 565 l 556 553 l 551 553 l 551 571 l 554 571 l 554 558 l 561 571 l 564 571 l 565 558 l 571 571 l 574 571 l 565 553 m 588 553 l 585 553 l 583 565 l 578 553 l 574 553 l 574 571 l 576 571 l 576 558 l 583 571 l 586 571 l 588 558 l 593 571 l 596 571 l 588 553 m 593 557 l 596 557 l 596 553 l 592 553 l 593 557 m 614 558 q 611 554 614 557 q 609 553 610 554 q 607 553 608 553 q 601 556 604 553 q 600 560 600 556 q 601 565 600 564 q 604 569 601 567 q 606 570 606 569 q 608 571 607 571 q 610 570 610 571 q 611 569 610 569 l 613 569 q 615 565 615 567 l 611 565 l 611 567 q 610 567 610 567 q 608 568 610 568 q 606 567 607 567 q 604 564 604 565 q 603 560 603 563 q 603 558 603 558 q 604 557 604 558 q 607 556 606 556 q 610 557 608 557 q 611 560 610 558 l 614 558 m 628 561 l 621 561 l 619 553 l 615 553 l 619 571 l 622 571 l 621 564 l 628 564 l 629 571 l 632 571 l 629 553 l 625 553 l 628 561 m 636 553 l 632 553 l 636 571 l 643 571 q 645 570 644 571 q 647 569 646 569 l 649 568 l 649 565 q 647 563 649 563 q 644 561 647 561 l 644 558 q 647 553 647 556 l 644 553 q 643 554 643 553 q 642 556 643 556 q 642 558 642 556 q 640 560 642 560 l 639 560 l 638 560 l 636 553 m 638 563 l 640 563 l 643 563 l 644 564 l 646 565 q 644 567 646 567 q 643 568 644 568 l 639 568 l 638 563 m 650 553 l 653 571 l 657 571 l 653 553 l 650 553 m 657 558 l 660 558 l 660 557 q 661 556 661 557 q 663 556 661 556 q 665 557 665 556 q 667 558 667 557 l 665 560 l 664 561 q 661 563 661 561 q 660 564 660 563 l 658 565 q 659 567 658 567 q 660 569 660 568 q 662 570 661 569 q 664 571 663 571 q 667 570 667 571 q 669 569 668 569 q 671 565 671 568 l 668 565 l 667 567 q 664 568 667 568 q 663 567 663 568 l 663 565 q 665 564 663 564 l 668 561 q 669 558 669 561 q 668 554 669 556 q 666 553 667 554 q 663 553 665 553 q 660 554 661 553 q 657 556 658 556 l 657 558 m 681 553 l 676 553 l 674 571 l 676 571 l 679 557 l 686 571 l 689 571 l 681 553 m 688 553 l 690 571 l 694 571 l 690 553 l 688 553 m 694 553 l 697 571 l 701 571 l 699 556 l 707 556 l 706 553 l 694 553 m 708 553 l 711 571 l 724 571 l 724 568 l 715 568 l 714 564 l 722 564 l 722 561 l 714 561 l 713 556 l 722 556 l 721 553 l 708 553 m 725 557 l 728 557 l 728 553 l 724 553 l 725 557 m 746 558 q 743 554 746 557 q 741 553 742 554 q 739 553 740 553 q 733 556 736 553 q 732 560 732 556 q 733 565 732 564 q 736 569 733 567 q 738 570 738 569 q 740 571 739 571 q 742 570 742 571 q 743 569 742 569 l 744 569 q 747 565 747 567 l 743 565 l 743 567 q 742 567 742 567 q 740 568 742 568 q 739 567 739 568 q 738 567 739 567 q 736 564 736 565 q 735 560 735 563 q 736 557 735 558 q 739 556 738 556 l 740 557 l 743 560 l 746 558 m 749 560 l 749 563 l 751 567 q 754 569 751 569 q 758 571 756 571 q 763 568 760 571 q 765 564 765 565 q 765 560 765 561 q 764 558 764 560 l 760 554 q 758 553 758 554 q 756 553 757 553 q 751 554 753 553 l 749 557 l 749 560 m 751 560 q 752 558 751 558 q 753 557 753 558 q 754 556 754 557 q 756 556 754 556 q 757 556 757 556 q 758 557 757 557 l 761 560 l 761 564 q 760 567 761 565 q 757 568 758 568 q 754 565 754 568 q 751 560 751 563 m 775 553 l 772 553 l 771 568 l 769 553 l 765 553 l 769 571 l 774 571 l 775 558 l 781 571 l 785 571 l 782 553 l 779 553 l 782 567 l 775 553 z "},"6":{"ha":1071,"x_min":43,"x_max":1028,"o":"m 519 442 q 474 360 494 397 q 426 275 453 324 q 313 367 357 304 q 276 436 290 397 q 261 524 261 475 q 276 613 261 574 q 311 682 290 651 q 426 774 356 743 l 426 597 l 519 597 l 519 890 q 375 856 435 886 q 271 781 315 825 q 199 674 228 738 q 175 606 183 642 q 167 526 167 569 q 185 410 167 460 q 229 321 203 361 q 372 194 283 240 q 403 181 388 188 q 438 171 419 175 q 474 162 456 165 q 515 158 493 158 l 518 158 l 519 158 l 519 165 l 519 442 m 543 606 q 589 686 568 650 q 636 772 610 722 q 750 679 704 742 q 787 610 772 649 q 801 522 801 572 q 787 434 801 474 q 751 365 772 394 q 701 311 729 335 q 636 272 672 288 l 636 450 l 543 450 l 543 157 q 688 192 628 161 q 792 267 747 222 q 864 374 836 311 q 887 441 878 404 q 896 519 896 478 q 878 636 896 586 q 833 726 861 686 q 770 798 806 767 q 690 851 735 829 q 625 876 664 865 q 588 884 607 881 q 547 888 568 888 q 547 888 549 888 q 543 889 544 889 l 543 882 l 543 606 m 536 32 q 347 69 436 32 q 188 176 258 106 q 80 336 117 247 q 43 525 43 425 q 80 713 43 625 q 188 872 117 801 q 347 980 258 943 q 536 1017 436 1017 q 724 980 636 1017 q 883 872 813 943 q 991 713 954 801 q 1028 525 1028 625 q 991 336 1028 425 q 883 176 954 247 q 724 69 813 106 q 536 32 636 32 m 536 969 q 363 935 444 969 q 222 840 282 900 q 126 698 161 779 q 90 525 90 617 q 126 352 90 433 q 222 210 161 271 q 363 115 282 150 q 536 79 444 79 q 708 115 628 79 q 849 210 789 150 q 945 352 910 271 q 981 525 981 433 q 945 698 981 617 q 849 840 910 779 q 708 935 789 900 q 536 969 628 969 m 333 497 q 321 481 329 486 q 303 475 311 475 q 283 482 294 475 q 276 503 276 493 q 282 524 276 514 q 294 538 286 533 q 311 543 300 543 q 329 538 319 543 q 336 522 336 531 l 324 521 l 319 529 q 311 531 318 531 q 301 528 304 531 q 293 517 296 524 q 290 503 290 506 q 294 490 290 494 q 303 486 296 486 q 313 490 308 486 q 319 500 317 493 l 333 497 m 383 506 l 358 506 l 351 476 l 338 476 l 351 542 l 365 542 l 360 517 l 385 517 l 390 542 l 404 542 l 390 476 l 376 476 l 383 506 m 418 476 l 404 476 l 418 542 l 447 542 q 458 540 457 542 q 463 538 461 539 q 465 535 464 536 q 468 525 468 526 q 463 511 468 515 q 447 504 460 507 l 453 499 q 458 489 456 494 q 463 476 460 483 l 449 476 q 446 483 447 479 q 442 493 444 488 q 438 499 439 496 q 435 503 438 501 l 429 503 l 424 503 l 418 476 m 425 514 l 432 514 l 447 514 l 453 518 q 454 525 454 519 q 451 529 454 529 q 443 531 450 531 l 429 531 l 425 514 m 469 476 l 483 542 l 496 542 l 482 476 l 469 476 m 510 499 q 513 490 510 493 q 522 486 514 486 q 532 489 529 486 q 535 494 535 492 q 533 500 535 499 q 524 504 532 500 l 513 510 q 507 515 508 511 q 506 524 506 517 q 511 538 506 532 q 528 543 517 543 q 546 538 540 543 q 553 524 553 531 l 540 522 q 536 529 540 526 q 528 532 533 532 q 521 531 522 532 q 518 525 518 528 q 519 521 518 522 q 524 519 521 519 q 529 515 526 518 l 544 508 q 549 496 549 501 q 542 482 549 489 q 522 475 535 475 q 508 478 519 475 q 500 486 501 482 q 497 497 497 489 l 510 499 m 614 476 l 600 476 l 588 542 l 601 542 l 610 492 l 636 542 l 650 542 l 614 476 m 642 476 l 656 542 l 668 542 l 654 476 l 642 476 m 668 476 l 682 542 l 694 542 l 683 488 l 717 488 l 714 476 l 668 476 m 724 476 l 736 542 l 785 542 l 783 531 l 747 531 l 744 517 l 778 517 l 776 506 l 743 506 l 739 488 l 776 488 l 774 476 l 724 476 m 285 554 l 288 572 l 293 572 l 294 571 l 297 571 l 299 571 q 300 569 299 569 l 300 567 l 300 564 l 300 560 l 297 557 q 294 556 296 556 q 290 554 293 554 l 285 554 m 289 557 l 290 557 q 293 558 293 557 l 294 558 q 296 561 296 560 q 297 565 297 563 q 296 567 297 567 q 294 568 296 568 q 293 569 294 569 l 290 569 l 289 557 m 301 554 l 306 572 l 318 572 l 317 568 l 308 568 l 307 565 l 315 565 l 315 563 l 307 563 l 306 557 l 315 557 l 314 554 l 301 554 m 318 560 l 321 560 l 321 558 q 324 557 322 557 q 326 558 326 557 q 328 560 328 558 l 326 561 l 325 563 q 322 564 322 563 q 321 565 321 564 l 319 567 q 320 569 319 568 q 321 571 321 569 q 323 572 322 571 q 325 572 324 572 q 328 572 328 572 q 331 571 329 571 q 332 567 332 569 l 329 567 l 328 568 q 325 569 328 569 q 324 568 324 569 l 324 567 q 326 565 324 565 l 329 563 q 331 560 331 563 q 329 556 331 557 q 327 555 328 556 q 324 554 326 554 q 321 556 322 554 q 318 557 319 557 l 318 560 m 333 554 l 336 572 l 340 572 l 336 554 l 333 554 m 349 564 l 356 564 l 354 557 q 351 556 354 556 q 347 554 350 554 q 345 555 346 554 q 343 556 344 556 q 340 561 340 558 q 342 567 340 565 q 344 571 342 568 q 347 572 346 571 q 350 572 347 572 q 352 572 351 572 q 354 571 353 571 q 357 567 357 568 l 354 567 l 353 568 q 350 569 351 569 q 347 568 349 568 q 344 565 344 568 l 344 561 l 344 558 q 346 558 346 558 q 347 557 346 557 l 350 557 l 351 558 l 353 561 l 349 561 l 349 564 m 371 554 l 368 554 l 364 567 l 361 554 l 358 554 l 361 572 l 364 572 l 369 560 l 371 572 l 375 572 l 371 554 m 375 554 l 378 572 l 390 572 l 390 568 l 381 568 l 381 565 l 389 565 l 389 563 l 379 563 l 379 557 l 389 557 l 388 554 l 375 554 m 390 554 l 394 572 l 399 572 q 400 572 400 572 q 401 571 400 571 l 403 571 l 404 571 l 406 569 l 406 567 q 407 564 407 565 q 406 562 407 563 q 406 560 406 561 l 403 557 q 400 556 401 556 q 396 554 399 554 l 390 554 m 394 557 l 396 557 q 399 558 399 557 l 400 558 l 403 561 l 403 565 l 403 567 l 401 568 q 400 569 400 568 q 399 569 400 569 l 397 569 l 394 557 m 414 554 l 417 572 l 424 572 l 425 571 l 428 571 l 429 569 l 429 568 l 429 565 q 426 564 428 564 l 428 563 q 429 560 429 561 q 428 557 429 558 l 426 556 q 424 555 425 556 q 422 554 424 554 l 414 554 m 418 557 l 421 557 q 424 558 424 557 l 425 558 l 425 560 l 425 561 q 422 563 424 563 l 418 563 l 418 557 m 419 565 l 422 565 l 425 565 l 426 567 q 425 568 426 568 l 422 568 l 419 568 l 419 565 m 439 554 l 436 554 l 438 561 l 432 572 l 436 572 l 439 567 l 439 564 l 440 565 l 442 568 l 444 572 l 449 572 l 440 561 l 439 554 m 543 553 l 540 553 l 539 565 l 533 553 l 529 553 l 529 571 l 532 571 l 532 558 l 539 571 l 542 571 l 543 558 l 549 571 l 551 571 l 543 553 m 565 553 l 563 553 l 561 565 l 556 553 l 551 553 l 551 571 l 554 571 l 554 558 l 561 571 l 564 571 l 565 558 l 571 571 l 574 571 l 565 553 m 588 553 l 585 553 l 583 565 l 578 553 l 574 553 l 574 571 l 576 571 l 576 558 l 583 571 l 586 571 l 588 558 l 593 571 l 596 571 l 588 553 m 593 557 l 596 557 l 596 553 l 592 553 l 593 557 m 614 558 q 611 554 614 557 q 609 553 610 554 q 607 553 608 553 q 601 556 604 553 q 600 560 600 556 q 601 565 600 564 q 604 569 601 567 q 606 570 606 569 q 608 571 607 571 q 610 570 610 571 q 611 569 610 569 l 613 569 q 615 565 615 567 l 611 565 l 611 567 q 610 567 610 567 q 608 568 610 568 q 606 567 607 567 q 604 564 604 565 q 603 560 603 563 q 603 558 603 558 q 604 557 604 558 q 607 556 606 556 q 610 557 608 557 q 611 560 610 558 l 614 558 m 628 561 l 621 561 l 619 553 l 615 553 l 619 571 l 622 571 l 621 564 l 628 564 l 629 571 l 632 571 l 629 553 l 625 553 l 628 561 m 636 553 l 632 553 l 636 571 l 643 571 q 645 570 644 571 q 647 569 646 569 l 649 568 l 649 565 q 647 563 649 563 q 644 561 647 561 l 644 558 q 647 553 647 556 l 644 553 q 643 554 643 553 q 642 556 643 556 q 642 558 642 556 q 640 560 642 560 l 639 560 l 638 560 l 636 553 m 638 563 l 640 563 l 643 563 l 644 564 l 646 565 q 644 567 646 567 q 643 568 644 568 l 639 568 l 638 563 m 650 553 l 653 571 l 657 571 l 653 553 l 650 553 m 657 558 l 660 558 l 660 557 q 661 556 661 557 q 663 556 661 556 q 665 557 665 556 q 667 558 667 557 l 665 560 l 664 561 q 661 563 661 561 q 660 564 660 563 l 658 565 q 659 567 658 567 q 660 569 660 568 q 662 570 661 569 q 664 571 663 571 q 667 570 667 571 q 669 569 668 569 q 671 565 671 568 l 668 565 l 667 567 q 664 568 667 568 q 663 567 663 568 l 663 565 q 665 564 663 564 l 668 561 q 669 558 669 561 q 668 554 669 556 q 666 553 667 554 q 663 553 665 553 q 660 554 661 553 q 657 556 658 556 l 657 558 m 681 553 l 676 553 l 674 571 l 676 571 l 679 557 l 686 571 l 689 571 l 681 553 m 688 553 l 690 571 l 694 571 l 690 553 l 688 553 m 694 553 l 697 571 l 701 571 l 699 556 l 707 556 l 706 553 l 694 553 m 708 553 l 711 571 l 724 571 l 724 568 l 715 568 l 714 564 l 722 564 l 722 561 l 714 561 l 713 556 l 722 556 l 721 553 l 708 553 m 725 557 l 728 557 l 728 553 l 724 553 l 725 557 m 746 558 q 743 554 746 557 q 741 553 742 554 q 739 553 740 553 q 733 556 736 553 q 732 560 732 556 q 733 565 732 564 q 736 569 733 567 q 738 570 738 569 q 740 571 739 571 q 742 570 742 571 q 743 569 742 569 l 744 569 q 747 565 747 567 l 743 565 l 743 567 q 742 567 742 567 q 740 568 742 568 q 739 567 739 568 q 738 567 739 567 q 736 564 736 565 q 735 560 735 563 q 736 557 735 558 q 739 556 738 556 l 740 557 l 743 560 l 746 558 m 749 560 l 749 563 l 751 567 q 754 569 751 569 q 758 571 756 571 q 763 568 760 571 q 765 564 765 565 q 765 560 765 561 q 764 558 764 560 l 760 554 q 758 553 758 554 q 756 553 757 553 q 751 554 753 553 l 749 557 l 749 560 m 751 560 q 752 558 751 558 q 753 557 753 558 q 754 556 754 557 q 756 556 754 556 q 757 556 757 556 q 758 557 757 557 l 761 560 l 761 564 q 760 567 761 565 q 757 568 758 568 q 754 565 754 568 q 751 560 751 563 m 775 553 l 772 553 l 771 568 l 769 553 l 765 553 l 769 571 l 774 571 l 775 558 l 781 571 l 785 571 l 782 553 l 779 553 l 782 567 l 775 553 z "},"7":{"ha":1071,"x_min":43,"x_max":1028,"o":"m 519 442 q 474 360 494 397 q 426 275 453 324 q 313 367 357 304 q 276 436 290 397 q 261 524 261 475 q 276 613 261 574 q 311 682 290 651 q 426 774 356 743 l 426 597 l 519 597 l 519 890 q 375 856 435 886 q 271 781 315 825 q 199 674 228 738 q 175 606 183 642 q 167 526 167 569 q 185 410 167 460 q 229 321 203 361 q 372 194 283 240 q 403 181 388 188 q 438 171 419 175 q 474 162 456 165 q 515 158 493 158 l 518 158 l 519 158 l 519 165 l 519 442 m 543 606 q 589 686 568 650 q 636 772 610 722 q 750 679 704 742 q 787 610 772 649 q 801 522 801 572 q 787 434 801 474 q 751 365 772 394 q 701 311 729 335 q 636 272 672 288 l 636 450 l 543 450 l 543 157 q 688 192 628 161 q 792 267 747 222 q 864 374 836 311 q 887 441 878 404 q 896 519 896 478 q 878 636 896 586 q 833 726 861 686 q 770 798 806 767 q 690 851 735 829 q 625 876 664 865 q 588 884 607 881 q 547 888 568 888 q 547 888 549 888 q 543 889 544 889 l 543 882 l 543 606 m 536 32 q 347 69 436 32 q 188 176 258 106 q 80 336 117 247 q 43 525 43 425 q 80 713 43 625 q 188 872 117 801 q 347 980 258 943 q 536 1017 436 1017 q 724 980 636 1017 q 883 872 813 943 q 991 713 954 801 q 1028 525 1028 625 q 991 336 1028 425 q 883 176 954 247 q 724 69 813 106 q 536 32 636 32 m 536 969 q 363 935 444 969 q 222 840 282 900 q 126 698 161 779 q 90 525 90 617 q 126 352 90 433 q 222 210 161 271 q 363 115 282 150 q 536 79 444 79 q 708 115 628 79 q 849 210 789 150 q 945 352 910 271 q 981 525 981 433 q 945 698 981 617 q 849 840 910 779 q 708 935 789 900 q 536 969 628 969 m 333 497 q 321 481 329 486 q 303 475 311 475 q 283 482 294 475 q 276 503 276 493 q 282 524 276 514 q 294 538 286 533 q 311 543 300 543 q 329 538 319 543 q 336 522 336 531 l 324 521 l 319 529 q 311 531 318 531 q 301 528 304 531 q 293 517 296 524 q 290 503 290 506 q 294 490 290 494 q 303 486 296 486 q 313 490 308 486 q 319 500 317 493 l 333 497 m 383 506 l 358 506 l 351 476 l 338 476 l 351 542 l 365 542 l 360 517 l 385 517 l 390 542 l 404 542 l 390 476 l 376 476 l 383 506 m 418 476 l 404 476 l 418 542 l 447 542 q 458 540 457 542 q 463 538 461 539 q 465 535 464 536 q 468 525 468 526 q 463 511 468 515 q 447 504 460 507 l 453 499 q 458 489 456 494 q 463 476 460 483 l 449 476 q 446 483 447 479 q 442 493 444 488 q 438 499 439 496 q 435 503 438 501 l 429 503 l 424 503 l 418 476 m 425 514 l 432 514 l 447 514 l 453 518 q 454 525 454 519 q 451 529 454 529 q 443 531 450 531 l 429 531 l 425 514 m 469 476 l 483 542 l 496 542 l 482 476 l 469 476 m 510 499 q 513 490 510 493 q 522 486 514 486 q 532 489 529 486 q 535 494 535 492 q 533 500 535 499 q 524 504 532 500 l 513 510 q 507 515 508 511 q 506 524 506 517 q 511 538 506 532 q 528 543 517 543 q 546 538 540 543 q 553 524 553 531 l 540 522 q 536 529 540 526 q 528 532 533 532 q 521 531 522 532 q 518 525 518 528 q 519 521 518 522 q 524 519 521 519 q 529 515 526 518 l 544 508 q 549 496 549 501 q 542 482 549 489 q 522 475 535 475 q 508 478 519 475 q 500 486 501 482 q 497 497 497 489 l 510 499 m 614 476 l 600 476 l 588 542 l 601 542 l 610 492 l 636 542 l 650 542 l 614 476 m 642 476 l 656 542 l 668 542 l 654 476 l 642 476 m 668 476 l 682 542 l 694 542 l 683 488 l 717 488 l 714 476 l 668 476 m 724 476 l 736 542 l 785 542 l 783 531 l 747 531 l 744 517 l 778 517 l 776 506 l 743 506 l 739 488 l 776 488 l 774 476 l 724 476 m 285 554 l 288 572 l 293 572 l 294 571 l 297 571 l 299 571 q 300 569 299 569 l 300 567 l 300 564 l 300 560 l 297 557 q 294 556 296 556 q 290 554 293 554 l 285 554 m 289 557 l 290 557 q 293 558 293 557 l 294 558 q 296 561 296 560 q 297 565 297 563 q 296 567 297 567 q 294 568 296 568 q 293 569 294 569 l 290 569 l 289 557 m 301 554 l 306 572 l 318 572 l 317 568 l 308 568 l 307 565 l 315 565 l 315 563 l 307 563 l 306 557 l 315 557 l 314 554 l 301 554 m 318 560 l 321 560 l 321 558 q 324 557 322 557 q 326 558 326 557 q 328 560 328 558 l 326 561 l 325 563 q 322 564 322 563 q 321 565 321 564 l 319 567 q 320 569 319 568 q 321 571 321 569 q 323 572 322 571 q 325 572 324 572 q 328 572 328 572 q 331 571 329 571 q 332 567 332 569 l 329 567 l 328 568 q 325 569 328 569 q 324 568 324 569 l 324 567 q 326 565 324 565 l 329 563 q 331 560 331 563 q 329 556 331 557 q 327 555 328 556 q 324 554 326 554 q 321 556 322 554 q 318 557 319 557 l 318 560 m 333 554 l 336 572 l 340 572 l 336 554 l 333 554 m 349 564 l 356 564 l 354 557 q 351 556 354 556 q 347 554 350 554 q 345 555 346 554 q 343 556 344 556 q 340 561 340 558 q 342 567 340 565 q 344 571 342 568 q 347 572 346 571 q 350 572 347 572 q 352 572 351 572 q 354 571 353 571 q 357 567 357 568 l 354 567 l 353 568 q 350 569 351 569 q 347 568 349 568 q 344 565 344 568 l 344 561 l 344 558 q 346 558 346 558 q 347 557 346 557 l 350 557 l 351 558 l 353 561 l 349 561 l 349 564 m 371 554 l 368 554 l 364 567 l 361 554 l 358 554 l 361 572 l 364 572 l 369 560 l 371 572 l 375 572 l 371 554 m 375 554 l 378 572 l 390 572 l 390 568 l 381 568 l 381 565 l 389 565 l 389 563 l 379 563 l 379 557 l 389 557 l 388 554 l 375 554 m 390 554 l 394 572 l 399 572 q 400 572 400 572 q 401 571 400 571 l 403 571 l 404 571 l 406 569 l 406 567 q 407 564 407 565 q 406 562 407 563 q 406 560 406 561 l 403 557 q 400 556 401 556 q 396 554 399 554 l 390 554 m 394 557 l 396 557 q 399 558 399 557 l 400 558 l 403 561 l 403 565 l 403 567 l 401 568 q 400 569 400 568 q 399 569 400 569 l 397 569 l 394 557 m 414 554 l 417 572 l 424 572 l 425 571 l 428 571 l 429 569 l 429 568 l 429 565 q 426 564 428 564 l 428 563 q 429 560 429 561 q 428 557 429 558 l 426 556 q 424 555 425 556 q 422 554 424 554 l 414 554 m 418 557 l 421 557 q 424 558 424 557 l 425 558 l 425 560 l 425 561 q 422 563 424 563 l 418 563 l 418 557 m 419 565 l 422 565 l 425 565 l 426 567 q 425 568 426 568 l 422 568 l 419 568 l 419 565 m 439 554 l 436 554 l 438 561 l 432 572 l 436 572 l 439 567 l 439 564 l 440 565 l 442 568 l 444 572 l 449 572 l 440 561 l 439 554 m 543 553 l 540 553 l 539 565 l 533 553 l 529 553 l 529 571 l 532 571 l 532 558 l 539 571 l 542 571 l 543 558 l 549 571 l 551 571 l 543 553 m 565 553 l 563 553 l 561 565 l 556 553 l 551 553 l 551 571 l 554 571 l 554 558 l 561 571 l 564 571 l 565 558 l 571 571 l 574 571 l 565 553 m 588 553 l 585 553 l 583 565 l 578 553 l 574 553 l 574 571 l 576 571 l 576 558 l 583 571 l 586 571 l 588 558 l 593 571 l 596 571 l 588 553 m 593 557 l 596 557 l 596 553 l 592 553 l 593 557 m 614 558 q 611 554 614 557 q 609 553 610 554 q 607 553 608 553 q 601 556 604 553 q 600 560 600 556 q 601 565 600 564 q 604 569 601 567 q 606 570 606 569 q 608 571 607 571 q 610 570 610 571 q 611 569 610 569 l 613 569 q 615 565 615 567 l 611 565 l 611 567 q 610 567 610 567 q 608 568 610 568 q 606 567 607 567 q 604 564 604 565 q 603 560 603 563 q 603 558 603 558 q 604 557 604 558 q 607 556 606 556 q 610 557 608 557 q 611 560 610 558 l 614 558 m 628 561 l 621 561 l 619 553 l 615 553 l 619 571 l 622 571 l 621 564 l 628 564 l 629 571 l 632 571 l 629 553 l 625 553 l 628 561 m 636 553 l 632 553 l 636 571 l 643 571 q 645 570 644 571 q 647 569 646 569 l 649 568 l 649 565 q 647 563 649 563 q 644 561 647 561 l 644 558 q 647 553 647 556 l 644 553 q 643 554 643 553 q 642 556 643 556 q 642 558 642 556 q 640 560 642 560 l 639 560 l 638 560 l 636 553 m 638 563 l 640 563 l 643 563 l 644 564 l 646 565 q 644 567 646 567 q 643 568 644 568 l 639 568 l 638 563 m 650 553 l 653 571 l 657 571 l 653 553 l 650 553 m 657 558 l 660 558 l 660 557 q 661 556 661 557 q 663 556 661 556 q 665 557 665 556 q 667 558 667 557 l 665 560 l 664 561 q 661 563 661 561 q 660 564 660 563 l 658 565 q 659 567 658 567 q 660 569 660 568 q 662 570 661 569 q 664 571 663 571 q 667 570 667 571 q 669 569 668 569 q 671 565 671 568 l 668 565 l 667 567 q 664 568 667 568 q 663 567 663 568 l 663 565 q 665 564 663 564 l 668 561 q 669 558 669 561 q 668 554 669 556 q 666 553 667 554 q 663 553 665 553 q 660 554 661 553 q 657 556 658 556 l 657 558 m 681 553 l 676 553 l 674 571 l 676 571 l 679 557 l 686 571 l 689 571 l 681 553 m 688 553 l 690 571 l 694 571 l 690 553 l 688 553 m 694 553 l 697 571 l 701 571 l 699 556 l 707 556 l 706 553 l 694 553 m 708 553 l 711 571 l 724 571 l 724 568 l 715 568 l 714 564 l 722 564 l 722 561 l 714 561 l 713 556 l 722 556 l 721 553 l 708 553 m 725 557 l 728 557 l 728 553 l 724 553 l 725 557 m 746 558 q 743 554 746 557 q 741 553 742 554 q 739 553 740 553 q 733 556 736 553 q 732 560 732 556 q 733 565 732 564 q 736 569 733 567 q 738 570 738 569 q 740 571 739 571 q 742 570 742 571 q 743 569 742 569 l 744 569 q 747 565 747 567 l 743 565 l 743 567 q 742 567 742 567 q 740 568 742 568 q 739 567 739 568 q 738 567 739 567 q 736 564 736 565 q 735 560 735 563 q 736 557 735 558 q 739 556 738 556 l 740 557 l 743 560 l 746 558 m 749 560 l 749 563 l 751 567 q 754 569 751 569 q 758 571 756 571 q 763 568 760 571 q 765 564 765 565 q 765 560 765 561 q 764 558 764 560 l 760 554 q 758 553 758 554 q 756 553 757 553 q 751 554 753 553 l 749 557 l 749 560 m 751 560 q 752 558 751 558 q 753 557 753 558 q 754 556 754 557 q 756 556 754 556 q 757 556 757 556 q 758 557 757 557 l 761 560 l 761 564 q 760 567 761 565 q 757 568 758 568 q 754 565 754 568 q 751 560 751 563 m 775 553 l 772 553 l 771 568 l 769 553 l 765 553 l 769 571 l 774 571 l 775 558 l 781 571 l 785 571 l 782 553 l 779 553 l 782 567 l 775 553 z "},"8":{"ha":1071,"x_min":43,"x_max":1028,"o":"m 519 442 q 474 360 494 397 q 426 275 453 324 q 313 367 357 304 q 276 436 290 397 q 261 524 261 475 q 276 613 261 574 q 311 682 290 651 q 426 774 356 743 l 426 597 l 519 597 l 519 890 q 375 856 435 886 q 271 781 315 825 q 199 674 228 738 q 175 606 183 642 q 167 526 167 569 q 185 410 167 460 q 229 321 203 361 q 372 194 283 240 q 403 181 388 188 q 438 171 419 175 q 474 162 456 165 q 515 158 493 158 l 518 158 l 519 158 l 519 165 l 519 442 m 543 606 q 589 686 568 650 q 636 772 610 722 q 750 679 704 742 q 787 610 772 649 q 801 522 801 572 q 787 434 801 474 q 751 365 772 394 q 701 311 729 335 q 636 272 672 288 l 636 450 l 543 450 l 543 157 q 688 192 628 161 q 792 267 747 222 q 864 374 836 311 q 887 441 878 404 q 896 519 896 478 q 878 636 896 586 q 833 726 861 686 q 770 798 806 767 q 690 851 735 829 q 625 876 664 865 q 588 884 607 881 q 547 888 568 888 q 547 888 549 888 q 543 889 544 889 l 543 882 l 543 606 m 536 32 q 347 69 436 32 q 188 176 258 106 q 80 336 117 247 q 43 525 43 425 q 80 713 43 625 q 188 872 117 801 q 347 980 258 943 q 536 1017 436 1017 q 724 980 636 1017 q 883 872 813 943 q 991 713 954 801 q 1028 525 1028 625 q 991 336 1028 425 q 883 176 954 247 q 724 69 813 106 q 536 32 636 32 m 536 969 q 363 935 444 969 q 222 840 282 900 q 126 698 161 779 q 90 525 90 617 q 126 352 90 433 q 222 210 161 271 q 363 115 282 150 q 536 79 444 79 q 708 115 628 79 q 849 210 789 150 q 945 352 910 271 q 981 525 981 433 q 945 698 981 617 q 849 840 910 779 q 708 935 789 900 q 536 969 628 969 m 333 497 q 321 481 329 486 q 303 475 311 475 q 283 482 294 475 q 276 503 276 493 q 282 524 276 514 q 294 538 286 533 q 311 543 300 543 q 329 538 319 543 q 336 522 336 531 l 324 521 l 319 529 q 311 531 318 531 q 301 528 304 531 q 293 517 296 524 q 290 503 290 506 q 294 490 290 494 q 303 486 296 486 q 313 490 308 486 q 319 500 317 493 l 333 497 m 383 506 l 358 506 l 351 476 l 338 476 l 351 542 l 365 542 l 360 517 l 385 517 l 390 542 l 404 542 l 390 476 l 376 476 l 383 506 m 418 476 l 404 476 l 418 542 l 447 542 q 458 540 457 542 q 463 538 461 539 q 465 535 464 536 q 468 525 468 526 q 463 511 468 515 q 447 504 460 507 l 453 499 q 458 489 456 494 q 463 476 460 483 l 449 476 q 446 483 447 479 q 442 493 444 488 q 438 499 439 496 q 435 503 438 501 l 429 503 l 424 503 l 418 476 m 425 514 l 432 514 l 447 514 l 453 518 q 454 525 454 519 q 451 529 454 529 q 443 531 450 531 l 429 531 l 425 514 m 469 476 l 483 542 l 496 542 l 482 476 l 469 476 m 510 499 q 513 490 510 493 q 522 486 514 486 q 532 489 529 486 q 535 494 535 492 q 533 500 535 499 q 524 504 532 500 l 513 510 q 507 515 508 511 q 506 524 506 517 q 511 538 506 532 q 528 543 517 543 q 546 538 540 543 q 553 524 553 531 l 540 522 q 536 529 540 526 q 528 532 533 532 q 521 531 522 532 q 518 525 518 528 q 519 521 518 522 q 524 519 521 519 q 529 515 526 518 l 544 508 q 549 496 549 501 q 542 482 549 489 q 522 475 535 475 q 508 478 519 475 q 500 486 501 482 q 497 497 497 489 l 510 499 m 614 476 l 600 476 l 588 542 l 601 542 l 610 492 l 636 542 l 650 542 l 614 476 m 642 476 l 656 542 l 668 542 l 654 476 l 642 476 m 668 476 l 682 542 l 694 542 l 683 488 l 717 488 l 714 476 l 668 476 m 724 476 l 736 542 l 785 542 l 783 531 l 747 531 l 744 517 l 778 517 l 776 506 l 743 506 l 739 488 l 776 488 l 774 476 l 724 476 m 285 554 l 288 572 l 293 572 l 294 571 l 297 571 l 299 571 q 300 569 299 569 l 300 567 l 300 564 l 300 560 l 297 557 q 294 556 296 556 q 290 554 293 554 l 285 554 m 289 557 l 290 557 q 293 558 293 557 l 294 558 q 296 561 296 560 q 297 565 297 563 q 296 567 297 567 q 294 568 296 568 q 293 569 294 569 l 290 569 l 289 557 m 301 554 l 306 572 l 318 572 l 317 568 l 308 568 l 307 565 l 315 565 l 315 563 l 307 563 l 306 557 l 315 557 l 314 554 l 301 554 m 318 560 l 321 560 l 321 558 q 324 557 322 557 q 326 558 326 557 q 328 560 328 558 l 326 561 l 325 563 q 322 564 322 563 q 321 565 321 564 l 319 567 q 320 569 319 568 q 321 571 321 569 q 323 572 322 571 q 325 572 324 572 q 328 572 328 572 q 331 571 329 571 q 332 567 332 569 l 329 567 l 328 568 q 325 569 328 569 q 324 568 324 569 l 324 567 q 326 565 324 565 l 329 563 q 331 560 331 563 q 329 556 331 557 q 327 555 328 556 q 324 554 326 554 q 321 556 322 554 q 318 557 319 557 l 318 560 m 333 554 l 336 572 l 340 572 l 336 554 l 333 554 m 349 564 l 356 564 l 354 557 q 351 556 354 556 q 347 554 350 554 q 345 555 346 554 q 343 556 344 556 q 340 561 340 558 q 342 567 340 565 q 344 571 342 568 q 347 572 346 571 q 350 572 347 572 q 352 572 351 572 q 354 571 353 571 q 357 567 357 568 l 354 567 l 353 568 q 350 569 351 569 q 347 568 349 568 q 344 565 344 568 l 344 561 l 344 558 q 346 558 346 558 q 347 557 346 557 l 350 557 l 351 558 l 353 561 l 349 561 l 349 564 m 371 554 l 368 554 l 364 567 l 361 554 l 358 554 l 361 572 l 364 572 l 369 560 l 371 572 l 375 572 l 371 554 m 375 554 l 378 572 l 390 572 l 390 568 l 381 568 l 381 565 l 389 565 l 389 563 l 379 563 l 379 557 l 389 557 l 388 554 l 375 554 m 390 554 l 394 572 l 399 572 q 400 572 400 572 q 401 571 400 571 l 403 571 l 404 571 l 406 569 l 406 567 q 407 564 407 565 q 406 562 407 563 q 406 560 406 561 l 403 557 q 400 556 401 556 q 396 554 399 554 l 390 554 m 394 557 l 396 557 q 399 558 399 557 l 400 558 l 403 561 l 403 565 l 403 567 l 401 568 q 400 569 400 568 q 399 569 400 569 l 397 569 l 394 557 m 414 554 l 417 572 l 424 572 l 425 571 l 428 571 l 429 569 l 429 568 l 429 565 q 426 564 428 564 l 428 563 q 429 560 429 561 q 428 557 429 558 l 426 556 q 424 555 425 556 q 422 554 424 554 l 414 554 m 418 557 l 421 557 q 424 558 424 557 l 425 558 l 425 560 l 425 561 q 422 563 424 563 l 418 563 l 418 557 m 419 565 l 422 565 l 425 565 l 426 567 q 425 568 426 568 l 422 568 l 419 568 l 419 565 m 439 554 l 436 554 l 438 561 l 432 572 l 436 572 l 439 567 l 439 564 l 440 565 l 442 568 l 444 572 l 449 572 l 440 561 l 439 554 m 543 553 l 540 553 l 539 565 l 533 553 l 529 553 l 529 571 l 532 571 l 532 558 l 539 571 l 542 571 l 543 558 l 549 571 l 551 571 l 543 553 m 565 553 l 563 553 l 561 565 l 556 553 l 551 553 l 551 571 l 554 571 l 554 558 l 561 571 l 564 571 l 565 558 l 571 571 l 574 571 l 565 553 m 588 553 l 585 553 l 583 565 l 578 553 l 574 553 l 574 571 l 576 571 l 576 558 l 583 571 l 586 571 l 588 558 l 593 571 l 596 571 l 588 553 m 593 557 l 596 557 l 596 553 l 592 553 l 593 557 m 614 558 q 611 554 614 557 q 609 553 610 554 q 607 553 608 553 q 601 556 604 553 q 600 560 600 556 q 601 565 600 564 q 604 569 601 567 q 606 570 606 569 q 608 571 607 571 q 610 570 610 571 q 611 569 610 569 l 613 569 q 615 565 615 567 l 611 565 l 611 567 q 610 567 610 567 q 608 568 610 568 q 606 567 607 567 q 604 564 604 565 q 603 560 603 563 q 603 558 603 558 q 604 557 604 558 q 607 556 606 556 q 610 557 608 557 q 611 560 610 558 l 614 558 m 628 561 l 621 561 l 619 553 l 615 553 l 619 571 l 622 571 l 621 564 l 628 564 l 629 571 l 632 571 l 629 553 l 625 553 l 628 561 m 636 553 l 632 553 l 636 571 l 643 571 q 645 570 644 571 q 647 569 646 569 l 649 568 l 649 565 q 647 563 649 563 q 644 561 647 561 l 644 558 q 647 553 647 556 l 644 553 q 643 554 643 553 q 642 556 643 556 q 642 558 642 556 q 640 560 642 560 l 639 560 l 638 560 l 636 553 m 638 563 l 640 563 l 643 563 l 644 564 l 646 565 q 644 567 646 567 q 643 568 644 568 l 639 568 l 638 563 m 650 553 l 653 571 l 657 571 l 653 553 l 650 553 m 657 558 l 660 558 l 660 557 q 661 556 661 557 q 663 556 661 556 q 665 557 665 556 q 667 558 667 557 l 665 560 l 664 561 q 661 563 661 561 q 660 564 660 563 l 658 565 q 659 567 658 567 q 660 569 660 568 q 662 570 661 569 q 664 571 663 571 q 667 570 667 571 q 669 569 668 569 q 671 565 671 568 l 668 565 l 667 567 q 664 568 667 568 q 663 567 663 568 l 663 565 q 665 564 663 564 l 668 561 q 669 558 669 561 q 668 554 669 556 q 666 553 667 554 q 663 553 665 553 q 660 554 661 553 q 657 556 658 556 l 657 558 m 681 553 l 676 553 l 674 571 l 676 571 l 679 557 l 686 571 l 689 571 l 681 553 m 688 553 l 690 571 l 694 571 l 690 553 l 688 553 m 694 553 l 697 571 l 701 571 l 699 556 l 707 556 l 706 553 l 694 553 m 708 553 l 711 571 l 724 571 l 724 568 l 715 568 l 714 564 l 722 564 l 722 561 l 714 561 l 713 556 l 722 556 l 721 553 l 708 553 m 725 557 l 728 557 l 728 553 l 724 553 l 725 557 m 746 558 q 743 554 746 557 q 741 553 742 554 q 739 553 740 553 q 733 556 736 553 q 732 560 732 556 q 733 565 732 564 q 736 569 733 567 q 738 570 738 569 q 740 571 739 571 q 742 570 742 571 q 743 569 742 569 l 744 569 q 747 565 747 567 l 743 565 l 743 567 q 742 567 742 567 q 740 568 742 568 q 739 567 739 568 q 738 567 739 567 q 736 564 736 565 q 735 560 735 563 q 736 557 735 558 q 739 556 738 556 l 740 557 l 743 560 l 746 558 m 749 560 l 749 563 l 751 567 q 754 569 751 569 q 758 571 756 571 q 763 568 760 571 q 765 564 765 565 q 765 560 765 561 q 764 558 764 560 l 760 554 q 758 553 758 554 q 756 553 757 553 q 751 554 753 553 l 749 557 l 749 560 m 751 560 q 752 558 751 558 q 753 557 753 558 q 754 556 754 557 q 756 556 754 556 q 757 556 757 556 q 758 557 757 557 l 761 560 l 761 564 q 760 567 761 565 q 757 568 758 568 q 754 565 754 568 q 751 560 751 563 m 775 553 l 772 553 l 771 568 l 769 553 l 765 553 l 769 571 l 774 571 l 775 558 l 781 571 l 785 571 l 782 553 l 779 553 l 782 567 l 775 553 z "},"9":{"ha":1071,"x_min":43,"x_max":1028,"o":"m 519 442 q 474 360 494 397 q 426 275 453 324 q 313 367 357 304 q 276 436 290 397 q 261 524 261 475 q 276 613 261 574 q 311 682 290 651 q 426 774 356 743 l 426 597 l 519 597 l 519 890 q 375 856 435 886 q 271 781 315 825 q 199 674 228 738 q 175 606 183 642 q 167 526 167 569 q 185 410 167 460 q 229 321 203 361 q 372 194 283 240 q 403 181 388 188 q 438 171 419 175 q 474 162 456 165 q 515 158 493 158 l 518 158 l 519 158 l 519 165 l 519 442 m 543 606 q 589 686 568 650 q 636 772 610 722 q 750 679 704 742 q 787 610 772 649 q 801 522 801 572 q 787 434 801 474 q 751 365 772 394 q 701 311 729 335 q 636 272 672 288 l 636 450 l 543 450 l 543 157 q 688 192 628 161 q 792 267 747 222 q 864 374 836 311 q 887 441 878 404 q 896 519 896 478 q 878 636 896 586 q 833 726 861 686 q 770 798 806 767 q 690 851 735 829 q 625 876 664 865 q 588 884 607 881 q 547 888 568 888 q 547 888 549 888 q 543 889 544 889 l 543 882 l 543 606 m 536 32 q 347 69 436 32 q 188 176 258 106 q 80 336 117 247 q 43 525 43 425 q 80 713 43 625 q 188 872 117 801 q 347 980 258 943 q 536 1017 436 1017 q 724 980 636 1017 q 883 872 813 943 q 991 713 954 801 q 1028 525 1028 625 q 991 336 1028 425 q 883 176 954 247 q 724 69 813 106 q 536 32 636 32 m 536 969 q 363 935 444 969 q 222 840 282 900 q 126 698 161 779 q 90 525 90 617 q 126 352 90 433 q 222 210 161 271 q 363 115 282 150 q 536 79 444 79 q 708 115 628 79 q 849 210 789 150 q 945 352 910 271 q 981 525 981 433 q 945 698 981 617 q 849 840 910 779 q 708 935 789 900 q 536 969 628 969 m 333 497 q 321 481 329 486 q 303 475 311 475 q 283 482 294 475 q 276 503 276 493 q 282 524 276 514 q 294 538 286 533 q 311 543 300 543 q 329 538 319 543 q 336 522 336 531 l 324 521 l 319 529 q 311 531 318 531 q 301 528 304 531 q 293 517 296 524 q 290 503 290 506 q 294 490 290 494 q 303 486 296 486 q 313 490 308 486 q 319 500 317 493 l 333 497 m 383 506 l 358 506 l 351 476 l 338 476 l 351 542 l 365 542 l 360 517 l 385 517 l 390 542 l 404 542 l 390 476 l 376 476 l 383 506 m 418 476 l 404 476 l 418 542 l 447 542 q 458 540 457 542 q 463 538 461 539 q 465 535 464 536 q 468 525 468 526 q 463 511 468 515 q 447 504 460 507 l 453 499 q 458 489 456 494 q 463 476 460 483 l 449 476 q 446 483 447 479 q 442 493 444 488 q 438 499 439 496 q 435 503 438 501 l 429 503 l 424 503 l 418 476 m 425 514 l 432 514 l 447 514 l 453 518 q 454 525 454 519 q 451 529 454 529 q 443 531 450 531 l 429 531 l 425 514 m 469 476 l 483 542 l 496 542 l 482 476 l 469 476 m 510 499 q 513 490 510 493 q 522 486 514 486 q 532 489 529 486 q 535 494 535 492 q 533 500 535 499 q 524 504 532 500 l 513 510 q 507 515 508 511 q 506 524 506 517 q 511 538 506 532 q 528 543 517 543 q 546 538 540 543 q 553 524 553 531 l 540 522 q 536 529 540 526 q 528 532 533 532 q 521 531 522 532 q 518 525 518 528 q 519 521 518 522 q 524 519 521 519 q 529 515 526 518 l 544 508 q 549 496 549 501 q 542 482 549 489 q 522 475 535 475 q 508 478 519 475 q 500 486 501 482 q 497 497 497 489 l 510 499 m 614 476 l 600 476 l 588 542 l 601 542 l 610 492 l 636 542 l 650 542 l 614 476 m 642 476 l 656 542 l 668 542 l 654 476 l 642 476 m 668 476 l 682 542 l 694 542 l 683 488 l 717 488 l 714 476 l 668 476 m 724 476 l 736 542 l 785 542 l 783 531 l 747 531 l 744 517 l 778 517 l 776 506 l 743 506 l 739 488 l 776 488 l 774 476 l 724 476 m 285 554 l 288 572 l 293 572 l 294 571 l 297 571 l 299 571 q 300 569 299 569 l 300 567 l 300 564 l 300 560 l 297 557 q 294 556 296 556 q 290 554 293 554 l 285 554 m 289 557 l 290 557 q 293 558 293 557 l 294 558 q 296 561 296 560 q 297 565 297 563 q 296 567 297 567 q 294 568 296 568 q 293 569 294 569 l 290 569 l 289 557 m 301 554 l 306 572 l 318 572 l 317 568 l 308 568 l 307 565 l 315 565 l 315 563 l 307 563 l 306 557 l 315 557 l 314 554 l 301 554 m 318 560 l 321 560 l 321 558 q 324 557 322 557 q 326 558 326 557 q 328 560 328 558 l 326 561 l 325 563 q 322 564 322 563 q 321 565 321 564 l 319 567 q 320 569 319 568 q 321 571 321 569 q 323 572 322 571 q 325 572 324 572 q 328 572 328 572 q 331 571 329 571 q 332 567 332 569 l 329 567 l 328 568 q 325 569 328 569 q 324 568 324 569 l 324 567 q 326 565 324 565 l 329 563 q 331 560 331 563 q 329 556 331 557 q 327 555 328 556 q 324 554 326 554 q 321 556 322 554 q 318 557 319 557 l 318 560 m 333 554 l 336 572 l 340 572 l 336 554 l 333 554 m 349 564 l 356 564 l 354 557 q 351 556 354 556 q 347 554 350 554 q 345 555 346 554 q 343 556 344 556 q 340 561 340 558 q 342 567 340 565 q 344 571 342 568 q 347 572 346 571 q 350 572 347 572 q 352 572 351 572 q 354 571 353 571 q 357 567 357 568 l 354 567 l 353 568 q 350 569 351 569 q 347 568 349 568 q 344 565 344 568 l 344 561 l 344 558 q 346 558 346 558 q 347 557 346 557 l 350 557 l 351 558 l 353 561 l 349 561 l 349 564 m 371 554 l 368 554 l 364 567 l 361 554 l 358 554 l 361 572 l 364 572 l 369 560 l 371 572 l 375 572 l 371 554 m 375 554 l 378 572 l 390 572 l 390 568 l 381 568 l 381 565 l 389 565 l 389 563 l 379 563 l 379 557 l 389 557 l 388 554 l 375 554 m 390 554 l 394 572 l 399 572 q 400 572 400 572 q 401 571 400 571 l 403 571 l 404 571 l 406 569 l 406 567 q 407 564 407 565 q 406 562 407 563 q 406 560 406 561 l 403 557 q 400 556 401 556 q 396 554 399 554 l 390 554 m 394 557 l 396 557 q 399 558 399 557 l 400 558 l 403 561 l 403 565 l 403 567 l 401 568 q 400 569 400 568 q 399 569 400 569 l 397 569 l 394 557 m 414 554 l 417 572 l 424 572 l 425 571 l 428 571 l 429 569 l 429 568 l 429 565 q 426 564 428 564 l 428 563 q 429 560 429 561 q 428 557 429 558 l 426 556 q 424 555 425 556 q 422 554 424 554 l 414 554 m 418 557 l 421 557 q 424 558 424 557 l 425 558 l 425 560 l 425 561 q 422 563 424 563 l 418 563 l 418 557 m 419 565 l 422 565 l 425 565 l 426 567 q 425 568 426 568 l 422 568 l 419 568 l 419 565 m 439 554 l 436 554 l 438 561 l 432 572 l 436 572 l 439 567 l 439 564 l 440 565 l 442 568 l 444 572 l 449 572 l 440 561 l 439 554 m 543 553 l 540 553 l 539 565 l 533 553 l 529 553 l 529 571 l 532 571 l 532 558 l 539 571 l 542 571 l 543 558 l 549 571 l 551 571 l 543 553 m 565 553 l 563 553 l 561 565 l 556 553 l 551 553 l 551 571 l 554 571 l 554 558 l 561 571 l 564 571 l 565 558 l 571 571 l 574 571 l 565 553 m 588 553 l 585 553 l 583 565 l 578 553 l 574 553 l 574 571 l 576 571 l 576 558 l 583 571 l 586 571 l 588 558 l 593 571 l 596 571 l 588 553 m 593 557 l 596 557 l 596 553 l 592 553 l 593 557 m 614 558 q 611 554 614 557 q 609 553 610 554 q 607 553 608 553 q 601 556 604 553 q 600 560 600 556 q 601 565 600 564 q 604 569 601 567 q 606 570 606 569 q 608 571 607 571 q 610 570 610 571 q 611 569 610 569 l 613 569 q 615 565 615 567 l 611 565 l 611 567 q 610 567 610 567 q 608 568 610 568 q 606 567 607 567 q 604 564 604 565 q 603 560 603 563 q 603 558 603 558 q 604 557 604 558 q 607 556 606 556 q 610 557 608 557 q 611 560 610 558 l 614 558 m 628 561 l 621 561 l 619 553 l 615 553 l 619 571 l 622 571 l 621 564 l 628 564 l 629 571 l 632 571 l 629 553 l 625 553 l 628 561 m 636 553 l 632 553 l 636 571 l 643 571 q 645 570 644 571 q 647 569 646 569 l 649 568 l 649 565 q 647 563 649 563 q 644 561 647 561 l 644 558 q 647 553 647 556 l 644 553 q 643 554 643 553 q 642 556 643 556 q 642 558 642 556 q 640 560 642 560 l 639 560 l 638 560 l 636 553 m 638 563 l 640 563 l 643 563 l 644 564 l 646 565 q 644 567 646 567 q 643 568 644 568 l 639 568 l 638 563 m 650 553 l 653 571 l 657 571 l 653 553 l 650 553 m 657 558 l 660 558 l 660 557 q 661 556 661 557 q 663 556 661 556 q 665 557 665 556 q 667 558 667 557 l 665 560 l 664 561 q 661 563 661 561 q 660 564 660 563 l 658 565 q 659 567 658 567 q 660 569 660 568 q 662 570 661 569 q 664 571 663 571 q 667 570 667 571 q 669 569 668 569 q 671 565 671 568 l 668 565 l 667 567 q 664 568 667 568 q 663 567 663 568 l 663 565 q 665 564 663 564 l 668 561 q 669 558 669 561 q 668 554 669 556 q 666 553 667 554 q 663 553 665 553 q 660 554 661 553 q 657 556 658 556 l 657 558 m 681 553 l 676 553 l 674 571 l 676 571 l 679 557 l 686 571 l 689 571 l 681 553 m 688 553 l 690 571 l 694 571 l 690 553 l 688 553 m 694 553 l 697 571 l 701 571 l 699 556 l 707 556 l 706 553 l 694 553 m 708 553 l 711 571 l 724 571 l 724 568 l 715 568 l 714 564 l 722 564 l 722 561 l 714 561 l 713 556 l 722 556 l 721 553 l 708 553 m 725 557 l 728 557 l 728 553 l 724 553 l 725 557 m 746 558 q 743 554 746 557 q 741 553 742 554 q 739 553 740 553 q 733 556 736 553 q 732 560 732 556 q 733 565 732 564 q 736 569 733 567 q 738 570 738 569 q 740 571 739 571 q 742 570 742 571 q 743 569 742 569 l 744 569 q 747 565 747 567 l 743 565 l 743 567 q 742 567 742 567 q 740 568 742 568 q 739 567 739 568 q 738 567 739 567 q 736 564 736 565 q 735 560 735 563 q 736 557 735 558 q 739 556 738 556 l 740 557 l 743 560 l 746 558 m 749 560 l 749 563 l 751 567 q 754 569 751 569 q 758 571 756 571 q 763 568 760 571 q 765 564 765 565 q 765 560 765 561 q 764 558 764 560 l 760 554 q 758 553 758 554 q 756 553 757 553 q 751 554 753 553 l 749 557 l 749 560 m 751 560 q 752 558 751 558 q 753 557 753 558 q 754 556 754 557 q 756 556 754 556 q 757 556 757 556 q 758 557 757 557 l 761 560 l 761 564 q 760 567 761 565 q 757 568 758 568 q 754 565 754 568 q 751 560 751 563 m 775 553 l 772 553 l 771 568 l 769 553 l 765 553 l 769 571 l 774 571 l 775 558 l 781 571 l 785 571 l 782 553 l 779 553 l 782 567 l 775 553 z "},"\u0000":{"ha":0,"x_min":0,"x_max":0,"o":""},"\r":{"ha":347,"x_min":0,"x_max":0,"o":""}," ":{"ha":347,"x_min":0,"x_max":0,"o":""},"!":{"ha":846,"x_min":176,"x_max":671,"o":"m 671 0 l 533 0 l 533 147 l 671 147 l 671 0 m 536 404 l 536 1035 l 486 1035 l 486 407 q 511 405 499 406 q 536 404 524 404 m 667 1139 l 667 1035 l 667 404 l 667 300 l 667 264 l 176 264 l 176 404 l 349 404 l 349 1033 q 264 1035 308 1036 q 176 1035 219 1033 l 176 1172 l 667 1172 l 667 1139 m 499 0 l 361 0 l 361 147 l 499 147 l 499 0 z "},"\"":{"ha":1389,"x_min":0,"x_max":0,"o":""},"#":{"ha":1389,"x_min":0,"x_max":0,"o":""},"$":{"ha":1389,"x_min":0,"x_max":0,"o":""},"%":{"ha":1389,"x_min":0,"x_max":0,"o":""},"&":{"ha":1389,"x_min":0,"x_max":0,"o":""},"'":{"ha":1389,"x_min":0,"x_max":0,"o":""},"(":{"ha":1389,"x_min":0,"x_max":0,"o":""},")":{"ha":1389,"x_min":0,"x_max":0,"o":""},"*":{"ha":1389,"x_min":0,"x_max":0,"o":""},"+":{"ha":1389,"x_min":0,"x_max":0,"o":""},",":{"ha":299,"x_min":36,"x_max":263,"o":"m 174 -33 l 36 -33 l 125 213 l 263 213 l 174 -33 z "},"-":{"ha":1389,"x_min":0,"x_max":0,"o":""},".":{"ha":329,"x_min":96,"x_max":233,"o":"m 233 1 l 96 1 l 96 149 l 233 149 l 233 1 z "},"A":{"ha":1144,"x_min":6,"x_max":1139,"o":"m 710 546 l 572 867 l 435 546 l 710 546 m 344 367 l 803 367 l 781 408 l 365 408 q 359 394 363 401 q 353 381 356 388 q 344 367 349 374 m 874 226 l 274 226 q 213 108 244 168 q 157 -1 182 47 l 6 -1 q 74 133 44 75 q 124 235 103 192 q 159 308 144 278 q 182 357 174 338 q 204 408 203 403 l 113 408 q 152 471 133 442 q 197 543 171 500 l 278 543 l 572 1172 l 575 1172 q 646 1022 603 1113 q 736 827 682 944 q 864 546 790 710 l 951 546 q 983 478 968 508 q 1014 411 997 447 l 938 411 q 949 385 938 408 q 977 326 960 363 q 1017 246 994 290 q 1061 156 1039 201 q 1104 69 1083 111 q 1139 -1 1125 28 l 992 -1 q 981 19 992 -1 q 953 72 969 39 q 915 144 936 104 q 874 226 894 185 z "},"B":{"ha":1072,"x_min":47,"x_max":1026,"o":"m 1026 332 q 1014 233 1026 274 q 981 165 1001 193 q 935 115 961 136 q 882 74 908 94 q 804 36 850 51 q 708 11 765 22 q 575 0 651 0 l 115 0 l 115 553 l 47 553 l 47 689 l 115 689 l 115 1172 l 624 1172 q 740 1134 685 1161 q 837 1063 796 1107 q 901 960 878 1019 q 919 826 924 900 q 885 719 915 760 q 810 649 854 679 q 897 620 857 649 q 965 547 936 592 q 1010 445 994 501 q 1026 332 1026 389 m 293 138 l 293 554 l 250 554 l 250 138 l 293 138 m 424 553 l 424 136 q 540 136 482 135 q 649 144 597 138 q 747 163 701 150 q 825 199 792 175 q 852 222 839 208 q 875 251 865 236 q 888 296 883 268 q 891 357 893 324 q 876 424 889 390 q 835 485 864 457 q 758 524 807 511 q 659 544 708 538 q 571 551 610 550 q 526 551 532 551 q 478 553 506 553 q 424 553 451 553 m 293 690 l 293 1038 l 247 1038 q 246 993 246 1031 q 247 890 246 960 q 250 690 247 819 l 293 690 m 424 1038 l 424 690 l 546 690 q 614 691 583 686 q 667 707 644 696 q 707 734 690 718 q 736 767 724 750 q 775 860 764 807 q 760 950 782 915 q 706 1004 738 985 q 644 1031 675 1024 q 604 1038 614 1038 l 424 1038 z "},"C":{"ha":1081,"x_min":42,"x_max":1039,"o":"m 42 583 q 76 840 42 726 q 172 1030 110 953 q 324 1148 235 1107 q 524 1189 413 1189 q 679 1156 599 1189 q 826 1071 760 1124 q 936 949 893 1018 q 979 810 979 881 l 853 810 q 826 888 853 847 q 759 963 799 929 q 674 1019 719 997 q 592 1042 628 1042 q 591 823 592 940 q 590 583 590 706 q 590 342 590 461 q 590 121 590 224 q 703 163 647 125 q 751 204 726 179 q 800 265 776 229 q 846 351 824 301 q 885 467 868 401 l 1039 467 q 997 305 1026 375 q 929 183 968 235 q 845 94 890 131 q 754 36 800 58 q 519 -25 647 -18 q 306 26 396 -25 q 158 163 217 78 q 70 357 99 247 q 42 583 42 467 m 272 239 l 272 943 q 191 786 221 879 q 161 586 161 693 q 193 388 161 475 q 272 239 225 300 m 403 1033 l 403 133 q 450 124 426 124 l 450 1040 l 447 1040 q 403 1033 428 1040 z "},"D":{"ha":1029,"x_min":71,"x_max":958,"o":"m 401 1172 q 626 1124 524 1172 q 803 994 729 1075 q 917 806 876 913 q 958 585 958 700 q 932 410 958 490 q 862 265 906 331 q 762 150 818 200 q 646 67 706 100 q 528 16 586 33 q 421 -1 469 -1 l 331 -1 q 221 -1 286 -1 q 71 0 156 -1 l 71 1172 l 401 1172 m 244 139 l 244 1032 q 222 1033 233 1032 q 200 1033 211 1033 q 197 1028 197 1033 l 197 138 q 220 138 208 138 q 244 139 232 139 m 375 1026 l 375 144 l 408 144 q 547 177 472 144 q 685 268 621 210 q 791 407 749 326 q 833 585 833 488 q 806 740 833 661 q 725 883 779 819 q 590 986 671 946 q 401 1026 508 1026 l 375 1026 z "},"E":{"ha":1011,"x_min":82,"x_max":929,"o":"m 292 138 l 292 588 l 253 588 l 253 138 l 292 138 m 292 722 l 292 1038 l 253 1038 q 251 882 250 956 q 253 722 253 808 l 292 722 m 422 1038 l 422 722 q 669 722 546 721 q 917 722 793 722 l 917 588 l 422 588 l 422 136 q 675 136 549 135 q 929 135 801 138 l 929 -1 l 122 -1 l 122 585 q 103 586 114 588 q 82 588 93 585 l 82 722 l 122 722 l 122 1172 l 929 1172 l 929 1038 l 422 1038 z "},"F":{"ha":1024,"x_min":75,"x_max":950,"o":"m 297 732 l 297 1038 l 249 1038 l 246 732 l 297 732 m 428 1038 l 428 732 l 871 732 l 871 586 l 428 586 l 428 -3 l 297 -3 l 297 586 l 249 586 q 248 317 249 428 q 247 136 247 207 q 246 0 246 53 l 113 0 l 113 586 l 75 586 l 75 732 l 113 732 l 113 1174 l 950 1174 l 950 1038 l 428 1038 z "},"G":{"ha":1090,"x_min":36,"x_max":1054,"o":"m 388 40 q 211 210 279 104 q 124 468 143 317 l 36 468 l 36 607 l 114 607 q 117 668 114 619 q 136 781 121 717 q 183 917 151 846 q 272 1049 215 989 q 413 1149 328 1110 q 618 1189 497 1189 q 772 1162 697 1189 q 906 1085 847 1135 q 999 964 964 1035 q 1035 806 1035 893 l 903 806 q 888 824 897 806 q 865 869 879 842 q 829 928 850 897 q 778 988 808 960 q 708 1033 749 1015 q 615 1051 668 1051 q 479 1023 536 1051 q 382 950 422 994 q 317 852 342 906 q 277 749 292 799 q 258 662 263 700 q 253 610 253 624 q 653 608 454 607 q 1054 607 851 610 q 1054 543 1054 583 q 1054 463 1054 503 q 1053 390 1054 422 q 1051 349 1053 357 q 1040 314 1049 333 q 1025 278 1032 294 q 932 131 992 194 q 793 26 872 67 q 692 -8 747 4 q 563 -15 636 -19 q 469 3 514 -12 q 388 40 425 18 m 914 431 l 914 468 l 247 468 q 246 467 244 468 q 247 463 247 465 q 250 446 249 454 q 253 431 251 438 l 914 431 m 307 299 q 335 260 321 279 q 368 224 350 242 q 478 147 415 176 q 629 124 542 117 q 728 148 682 128 q 810 200 774 168 q 846 242 825 213 q 885 299 867 271 l 307 299 z "},"H":{"ha":1111,"x_min":25,"x_max":1085,"o":"m 267 490 l 856 490 l 856 528 l 267 528 l 267 490 m 856 360 l 265 360 q 266 173 265 267 q 267 -1 267 79 l 126 -1 l 126 525 q 79 526 106 528 q 25 528 53 525 l 25 668 l 126 668 l 126 1172 l 267 1172 l 267 668 l 853 668 q 856 913 856 790 q 856 1158 856 1035 l 993 1158 l 993 668 q 1038 667 1014 665 q 1085 668 1061 668 l 1085 528 q 1041 526 1065 525 q 996 528 1017 528 q 994 503 994 515 q 994 478 994 492 l 994 360 l 993 360 q 994 173 993 267 q 993 -1 994 79 l 856 -1 l 856 360 z "},"I":{"ha":844,"x_min":176,"x_max":668,"o":"m 538 142 l 538 1035 l 488 1035 l 488 144 q 513 142 500 143 q 538 142 525 142 m 668 1139 l 668 1035 l 668 142 l 668 38 l 668 1 l 176 1 l 176 142 l 350 142 l 350 1032 q 265 1034 310 1036 q 176 1035 219 1032 l 176 1172 l 668 1172 l 668 1139 z "},"J":{"ha":1001,"x_min":86,"x_max":915,"o":"m 614 417 l 614 146 q 665 261 656 190 q 672 417 675 332 l 614 417 m 614 1060 l 614 538 l 672 538 l 672 1060 l 614 1060 m 483 417 l 232 417 q 226 411 226 417 q 231 291 226 347 q 260 190 235 235 q 326 124 283 150 q 431 93 368 97 q 456 92 443 93 q 483 93 469 92 l 483 417 m 615 0 q 554 -18 588 -11 q 483 -26 521 -25 l 428 -26 q 183 71 268 -11 q 89 300 99 153 q 88 418 86 358 q 89 538 89 478 l 483 538 l 483 1060 q 399 1060 442 1060 q 317 1063 357 1060 l 317 1181 l 915 1181 l 915 1060 l 813 1060 q 810 940 811 1008 q 810 801 810 872 q 810 660 810 729 q 810 539 810 592 q 862 538 833 536 q 915 538 890 539 l 915 417 l 813 417 q 803 242 815 321 q 751 106 790 164 q 694 44 728 71 q 615 0 660 17 z "},"K":{"ha":1118,"x_min":21,"x_max":1097,"o":"m 292 514 q 269 492 281 503 q 249 474 258 481 l 249 0 l 108 0 l 108 467 l 21 467 l 21 601 l 108 601 q 111 888 111 740 q 111 1171 111 1035 l 249 1171 l 249 668 q 260 677 249 667 q 292 707 272 688 l 292 1169 l 422 1169 l 422 832 q 524 931 468 876 q 634 1038 571 976 q 772 1174 697 1100 l 953 1174 q 872 1092 921 1142 q 767 986 822 1042 q 655 874 711 931 q 554 773 599 818 q 481 699 510 728 q 453 671 453 671 q 533 585 463 660 q 610 504 564 553 q 725 385 657 456 q 885 219 793 314 q 1097 0 976 125 l 906 0 l 422 500 l 422 -4 l 292 -4 l 292 514 z "},"L":{"ha":967,"x_min":107,"x_max":860,"o":"m 419 1172 l 419 144 l 860 144 l 860 4 l 107 4 l 107 1172 l 243 1172 l 243 144 l 289 144 l 289 1172 l 419 1172 z "},"M":{"ha":1092,"x_min":36,"x_max":1056,"o":"m 335 376 l 335 -1 l 204 -1 l 204 615 q 189 642 197 629 q 174 668 181 654 l 174 -1 l 36 -1 l 36 1171 q 89 1080 54 1140 q 167 942 124 1019 q 258 778 210 865 q 353 608 307 692 q 403 517 379 561 q 450 433 428 472 l 854 1172 l 1004 1172 l 526 299 q 538 279 533 288 q 546 265 543 271 q 672 489 608 374 q 799 721 735 604 q 926 952 863 838 q 1054 1172 989 1067 l 1056 1172 l 1056 -1 q 987 -1 1024 -1 q 915 -1 950 0 l 915 668 q 824 508 869 593 q 731 335 778 422 q 638 161 685 247 q 546 -1 592 75 q 458 148 501 69 q 371 310 414 226 q 353 343 361 326 q 335 376 344 360 z "},"N":{"ha":1017,"x_min":79,"x_max":938,"o":"m 214 553 l 214 -8 l 79 -8 l 79 688 l 79 1157 l 635 531 l 635 1174 l 765 1174 l 765 383 l 793 351 q 796 348 794 349 q 797 349 797 347 l 797 351 l 797 1174 l 938 1174 l 938 0 l 621 353 l 214 807 l 214 750 l 888 0 l 708 0 l 214 553 z "},"O":{"ha":1140,"x_min":7,"x_max":1132,"o":"m 175 150 q 63 324 108 221 q 10 557 17 428 q 10 628 7 594 q 27 747 14 689 q 64 856 40 806 q 246 1084 129 996 q 536 1192 363 1172 q 569 1192 551 1192 q 603 1192 586 1193 q 715 1172 663 1188 q 813 1132 768 1156 q 897 1078 858 1108 q 968 1013 936 1047 q 1079 844 1033 942 q 1132 615 1125 747 l 1132 572 q 1079 332 1125 439 q 965 153 1033 225 q 806 35 899 82 q 588 -18 714 -11 l 550 -18 q 334 34 426 -11 q 175 150 242 79 m 149 646 l 986 646 q 940 807 975 739 q 851 926 904 875 q 794 973 825 951 q 726 1011 763 994 q 649 1037 690 1028 q 560 1044 607 1046 q 401 1007 471 1042 q 279 921 332 972 q 195 803 231 872 q 149 646 160 733 m 919 332 l 219 332 q 299 231 251 275 q 416 157 349 186 q 571 128 483 128 q 726 158 658 128 q 842 233 793 189 q 919 332 886 275 m 167 463 l 971 463 q 975 481 974 472 q 979 499 976 490 l 158 499 q 158 494 156 499 q 163 478 161 486 q 167 463 164 471 z "},"P":{"ha":1004,"x_min":86,"x_max":924,"o":"m 351 431 l 343 431 l 321 431 q 319 213 321 322 q 318 -1 318 104 l 181 -1 l 181 428 q 134 431 158 432 q 86 431 110 431 l 86 571 l 181 571 l 181 1172 l 539 1172 q 690 1133 622 1160 q 810 1058 757 1107 q 891 947 858 1014 q 918 786 924 879 q 874 641 913 703 q 781 539 835 579 q 692 487 742 511 q 586 447 642 463 q 548 438 568 442 q 508 431 528 433 l 482 431 l 482 -1 l 351 -1 l 351 431 m 482 729 l 482 571 l 503 571 q 543 580 522 572 q 583 594 564 588 q 689 646 642 614 q 760 729 736 678 l 482 729 m 351 729 l 343 729 l 321 729 q 318 725 318 729 l 318 571 l 343 571 l 351 571 l 351 729 m 482 1035 l 482 869 l 771 869 q 736 936 763 908 q 676 983 710 964 q 603 1019 644 1003 q 517 1035 561 1035 l 482 1035 m 351 1035 l 343 1035 l 321 1035 q 318 1031 318 1035 l 318 869 l 343 869 l 351 869 l 351 1035 z "},"Q":{"ha":1250,"x_min":-54,"x_max":1304,"o":"m 881 347 q 940 588 940 449 q 920 717 939 657 q 874 825 901 776 q 772 944 833 892 q 631 1019 711 996 q 517 1038 574 1038 q 408 1024 460 1038 q 311 984 356 1010 q 235 926 267 958 q 558 637 399 783 q 881 347 717 490 m 129 781 l 765 210 q 781 222 774 217 q 788 231 788 228 q 754 261 788 231 q 667 341 721 292 q 544 452 613 390 q 403 578 475 514 q 264 702 332 642 q 144 808 196 763 q 129 781 135 794 m 89 640 q 87 610 88 625 q 86 579 86 594 q 106 439 86 503 q 158 324 125 375 q 233 234 190 272 q 321 171 275 196 q 374 147 344 157 q 436 131 403 138 q 643 144 546 113 l 89 640 m 764 38 q 626 -15 697 -1 q 445 -23 538 -35 q 282 22 353 -11 q 55 218 143 89 q -53 543 -33 347 q -53 581 -53 563 q -53 617 -54 599 q -46 682 -51 650 q -32 746 -40 714 q -15 797 -24 772 q 3 846 -7 822 q 188 1081 69 992 q 479 1189 306 1169 l 549 1189 q 826 1090 713 1171 q 1006 882 939 1008 q 1063 733 1040 817 q 1079 556 1085 650 q 1052 388 1075 464 q 989 249 1029 311 l 1029 217 q 1123 142 1060 193 q 1304 0 1186 92 l 1108 0 q 1040 49 1076 24 q 975 96 1004 75 q 907 144 939 121 q 840 89 876 117 q 764 38 804 61 z "},"R":{"ha":1079,"x_min":43,"x_max":1036,"o":"m 439 429 l 439 -1 l 308 -1 l 308 465 l 281 465 q 277 356 278 415 q 276 233 276 296 q 277 110 276 171 q 278 -1 278 49 l 138 -1 l 138 464 l 43 464 l 43 599 l 138 599 l 138 1172 l 506 1172 q 642 1138 579 1160 q 754 1078 706 1115 q 835 989 801 1042 q 875 864 868 936 q 859 722 885 782 q 793 618 833 663 q 697 543 750 572 q 579 492 643 514 q 686 378 621 447 q 828 226 742 318 q 1036 -1 914 133 l 868 -1 q 825 39 854 10 q 756 108 796 68 q 672 193 717 147 q 584 283 628 239 q 503 365 540 326 q 439 429 465 404 m 308 599 l 308 750 l 281 750 q 278 746 278 749 l 278 599 l 308 599 m 439 750 l 439 601 l 475 601 q 510 608 482 601 q 576 632 539 615 q 652 677 614 649 q 717 750 690 706 l 439 750 m 308 883 l 308 1042 l 281 1042 l 281 883 l 308 883 m 439 1042 l 439 883 l 728 883 q 688 953 719 924 q 614 1001 656 982 q 439 1042 540 1039 z "},"S":{"ha":1119,"x_min":21,"x_max":1099,"o":"m 171 1172 l 811 119 l 864 119 q 774 267 847 146 q 695 394 742 318 q 581 581 649 471 q 423 836 513 690 q 217 1172 333 982 l 999 1172 l 999 782 l 874 782 l 874 1047 l 449 1050 q 734 575 613 772 q 938 249 856 378 q 1099 -1 1033 99 l 221 -1 l 221 533 l 342 533 l 342 121 q 499 119 421 119 q 658 119 578 119 l 21 1172 l 171 1172 z "},"T":{"ha":1085,"x_min":40,"x_max":1044,"o":"m 456 879 l 40 879 l 40 1010 l 456 1010 l 456 1033 q 250 1034 354 1035 q 43 1033 146 1033 l 43 1172 l 1040 1172 l 1040 1033 l 596 1033 l 596 1010 l 1044 1010 l 1044 879 l 596 879 q 595 658 596 771 q 594 432 594 544 q 594 210 594 319 q 594 -1 594 100 l 456 -1 l 456 879 z "},"U":{"ha":1111,"x_min":25,"x_max":1085,"o":"m 597 157 q 651 177 626 165 q 696 204 676 189 q 647 258 672 231 q 597 314 622 285 q 489 443 543 376 q 380 575 435 510 q 270 703 325 640 q 160 824 215 767 q 160 788 160 824 q 159 698 160 751 q 158 580 158 644 q 158 459 158 515 q 158 361 158 403 q 160 311 158 319 q 187 244 164 276 q 233 194 210 213 q 308 158 264 171 q 401 140 351 144 q 501 140 450 136 q 597 157 553 144 m 728 1172 l 728 375 q 760 339 756 344 q 767 331 767 333 q 769 335 768 329 q 772 346 774 340 q 769 364 769 351 l 769 1172 l 910 1172 l 910 294 q 900 253 910 271 q 882 217 890 236 q 923 170 894 201 q 983 106 951 139 q 1043 42 1014 72 q 1085 -1 1072 13 l 897 -1 q 844 51 871 22 q 793 104 818 79 q 703 47 756 71 q 590 11 651 24 q 460 -2 528 -1 q 324 10 392 -3 q 126 105 204 33 q 25 294 47 176 l 25 1171 q 65 1127 33 1163 q 142 1039 96 1092 q 245 921 188 986 q 364 786 303 856 q 485 649 425 717 q 597 522 546 581 l 597 1172 l 728 1172 z "},"V":{"ha":1143,"x_min":7,"x_max":1136,"o":"m 397 353 q 279 597 343 465 q 155 858 225 710 q 7 1172 85 1006 l 151 1172 q 226 1023 185 1107 q 311 849 268 939 q 397 670 354 758 q 475 508 439 582 l 786 1172 l 931 1172 l 549 357 q 566 322 560 333 q 574 308 572 310 q 655 473 610 381 q 747 662 700 565 q 837 850 793 758 q 915 1013 881 942 q 972 1128 950 1085 q 993 1172 993 1172 l 1136 1172 q 994 884 1065 1032 q 853 586 924 736 q 714 288 783 436 q 574 -1 644 139 q 491 162 536 71 q 397 353 446 253 z "},"W":{"ha":1092,"x_min":36,"x_max":1056,"o":"m 342 1172 l 342 810 q 444 997 393 904 q 549 1172 496 1089 q 640 1010 594 1094 q 732 840 686 925 q 824 670 778 754 q 915 511 869 586 l 915 1175 q 988 1174 951 1172 q 1056 1172 1024 1176 l 1056 4 q 800 452 926 219 q 549 900 674 685 q 537 881 544 893 q 519 853 529 869 l 996 -1 l 846 -1 l 443 721 q 403 650 424 688 q 358 572 382 613 q 262 402 311 489 q 169 238 213 315 q 90 100 125 161 q 36 8 54 39 l 36 1172 l 174 1172 l 174 511 q 192 543 183 526 q 213 575 201 560 l 213 1172 l 342 1172 z "},"X":{"ha":1199,"x_min":-24,"x_max":1224,"o":"m 136 1172 l 553 625 l 575 661 l 196 1172 l 339 1172 q 390 1107 353 1156 q 485 983 422 1065 q 654 763 547 901 l 960 1172 l 1114 1172 l 732 658 l 1224 -1 l 1085 -1 l 654 554 l 632 521 l 1032 -1 l 858 -1 l 553 404 l 282 1 l 139 0 l 475 507 l -24 1172 l 136 1172 z "},"Y":{"ha":1060,"x_min":54,"x_max":1006,"o":"m 147 1044 q 97 1113 121 1081 q 54 1172 74 1146 l 147 1172 l 219 1172 q 315 1042 271 1100 q 367 972 342 1006 q 419 902 393 938 q 474 828 446 867 q 533 746 501 790 q 560 779 538 751 q 613 849 582 807 q 683 941 644 890 q 758 1042 721 992 q 809 1111 785 1078 q 854 1172 833 1144 l 904 1172 l 1006 1172 q 958 1106 982 1139 q 910 1038 933 1072 q 755 823 832 929 q 600 608 678 717 l 600 -1 l 463 -1 q 463 99 463 39 q 463 224 463 158 q 463 356 463 290 q 463 476 463 422 q 463 566 463 531 q 463 606 463 601 q 452 622 461 608 q 426 658 443 635 l 426 -1 l 296 -1 l 296 840 q 222 941 260 889 q 149 1042 185 993 l 147 1042 l 147 1044 z "},"Z":{"ha":1163,"x_min":-3,"x_max":1167,"o":"m 890 135 l 890 -1 l 397 -1 l -3 -1 l -3 0 l 671 1033 l 64 1035 l 64 1172 l 951 1171 q 654 712 781 906 q 443 389 528 518 q 274 135 344 239 l 324 135 l 1010 1172 l 1167 1172 l 479 135 l 890 135 z "},"[":{"ha":1389,"x_min":0,"x_max":0,"o":""},"\\":{"ha":1389,"x_min":0,"x_max":0,"o":""},"]":{"ha":1389,"x_min":0,"x_max":0,"o":""},"^":{"ha":1389,"x_min":0,"x_max":0,"o":""},"_":{"ha":1389,"x_min":0,"x_max":0,"o":""},"`":{"ha":1389,"x_min":0,"x_max":0,"o":""},"a":{"ha":1144,"x_min":6,"x_max":1139,"o":"m 710 546 l 572 867 l 435 546 l 710 546 m 344 367 l 803 367 l 781 408 l 365 408 q 359 394 363 401 q 353 381 356 388 q 344 367 349 374 m 874 226 l 274 226 q 213 108 244 168 q 157 -1 182 47 l 6 -1 q 74 133 44 75 q 124 235 103 192 q 159 308 144 278 q 182 357 174 338 q 204 408 203 403 l 113 408 q 152 471 133 442 q 197 543 171 500 l 278 543 l 572 1172 l 575 1172 q 646 1022 603 1113 q 736 827 682 944 q 864 546 790 710 l 951 546 q 983 478 968 508 q 1014 411 997 447 l 938 411 q 949 385 938 408 q 977 326 960 363 q 1017 246 994 290 q 1061 156 1039 201 q 1104 69 1083 111 q 1139 -1 1125 28 l 992 -1 q 981 19 992 -1 q 953 72 969 39 q 915 144 936 104 q 874 226 894 185 z "},"b":{"ha":1072,"x_min":47,"x_max":1026,"o":"m 1026 332 q 1014 233 1026 274 q 981 165 1001 193 q 935 115 961 136 q 882 74 908 94 q 804 36 850 51 q 708 11 765 22 q 575 0 651 0 l 115 0 l 115 553 l 47 553 l 47 689 l 115 689 l 115 1172 l 624 1172 q 740 1134 685 1161 q 837 1063 796 1107 q 901 960 878 1019 q 919 826 924 900 q 885 719 915 760 q 810 649 854 679 q 897 620 857 649 q 965 547 936 592 q 1010 445 994 501 q 1026 332 1026 389 m 293 138 l 293 554 l 250 554 l 250 138 l 293 138 m 424 553 l 424 136 q 540 136 482 135 q 649 144 597 138 q 747 163 701 150 q 825 199 792 175 q 852 222 839 208 q 875 251 865 236 q 888 296 883 268 q 891 357 893 324 q 876 424 889 390 q 835 485 864 457 q 758 524 807 511 q 659 544 708 538 q 571 551 610 550 q 526 551 532 551 q 478 553 506 553 q 424 553 451 553 m 293 690 l 293 1038 l 247 1038 q 246 993 246 1031 q 247 890 246 960 q 250 690 247 819 l 293 690 m 424 1038 l 424 690 l 546 690 q 614 691 583 686 q 667 707 644 696 q 707 734 690 718 q 736 767 724 750 q 775 860 764 807 q 760 950 782 915 q 706 1004 738 985 q 644 1031 675 1024 q 604 1038 614 1038 l 424 1038 z "},"c":{"ha":1081,"x_min":42,"x_max":1039,"o":"m 42 583 q 76 840 42 726 q 172 1030 110 953 q 324 1148 235 1107 q 524 1189 413 1189 q 679 1156 599 1189 q 826 1071 760 1124 q 936 949 893 1018 q 979 810 979 881 l 853 810 q 826 888 853 847 q 759 963 799 929 q 674 1019 719 997 q 592 1042 628 1042 q 591 823 592 940 q 590 583 590 706 q 590 342 590 461 q 590 121 590 224 q 703 163 647 125 q 751 204 726 179 q 800 265 776 229 q 846 351 824 301 q 885 467 868 401 l 1039 467 q 997 305 1026 375 q 929 183 968 235 q 845 94 890 131 q 754 36 800 58 q 519 -25 647 -18 q 306 26 396 -25 q 158 163 217 78 q 70 357 99 247 q 42 583 42 467 m 272 239 l 272 943 q 191 786 221 879 q 161 586 161 693 q 193 388 161 475 q 272 239 225 300 m 403 1033 l 403 133 q 450 124 426 124 l 450 1040 l 447 1040 q 403 1033 428 1040 z "},"d":{"ha":1029,"x_min":71,"x_max":958,"o":"m 401 1172 q 626 1124 524 1172 q 803 994 729 1075 q 917 806 876 913 q 958 585 958 700 q 932 410 958 490 q 862 265 906 331 q 762 150 818 200 q 646 67 706 100 q 528 16 586 33 q 421 -1 469 -1 l 331 -1 q 221 -1 286 -1 q 71 0 156 -1 l 71 1172 l 401 1172 m 244 139 l 244 1032 q 222 1033 233 1032 q 200 1033 211 1033 q 197 1028 197 1033 l 197 138 q 220 138 208 138 q 244 139 232 139 m 375 1026 l 375 144 l 408 144 q 547 177 472 144 q 685 268 621 210 q 791 407 749 326 q 833 585 833 488 q 806 740 833 661 q 725 883 779 819 q 590 986 671 946 q 401 1026 508 1026 l 375 1026 z "},"e":{"ha":1011,"x_min":82,"x_max":929,"o":"m 292 138 l 292 588 l 253 588 l 253 138 l 292 138 m 292 722 l 292 1038 l 253 1038 q 251 882 250 956 q 253 722 253 808 l 292 722 m 422 1038 l 422 722 q 669 722 546 721 q 917 722 793 722 l 917 588 l 422 588 l 422 136 q 675 136 549 135 q 929 135 801 138 l 929 -1 l 122 -1 l 122 585 q 103 586 114 588 q 82 588 93 585 l 82 722 l 122 722 l 122 1172 l 929 1172 l 929 1038 l 422 1038 z "},"f":{"ha":1024,"x_min":75,"x_max":950,"o":"m 297 732 l 297 1038 l 249 1038 l 246 732 l 297 732 m 428 1038 l 428 732 l 871 732 l 871 586 l 428 586 l 428 -3 l 297 -3 l 297 586 l 249 586 q 248 317 249 428 q 247 136 247 207 q 246 0 246 53 l 113 0 l 113 586 l 75 586 l 75 732 l 113 732 l 113 1174 l 950 1174 l 950 1038 l 428 1038 z "},"g":{"ha":1090,"x_min":36,"x_max":1054,"o":"m 388 40 q 211 210 279 104 q 124 468 143 317 l 36 468 l 36 607 l 114 607 q 117 668 114 619 q 136 781 121 717 q 183 917 151 846 q 272 1049 215 989 q 413 1149 328 1110 q 618 1189 497 1189 q 772 1162 697 1189 q 906 1085 847 1135 q 999 964 964 1035 q 1035 806 1035 893 l 903 806 q 888 824 897 806 q 865 869 879 842 q 829 928 850 897 q 778 988 808 960 q 708 1033 749 1015 q 615 1051 668 1051 q 479 1023 536 1051 q 382 950 422 994 q 317 852 342 906 q 277 749 292 799 q 258 662 263 700 q 253 610 253 624 q 653 608 454 607 q 1054 607 851 610 q 1054 543 1054 583 q 1054 463 1054 503 q 1053 390 1054 422 q 1051 349 1053 357 q 1040 314 1049 333 q 1025 278 1032 294 q 932 131 992 194 q 793 26 872 67 q 692 -8 747 4 q 563 -15 636 -19 q 469 3 514 -12 q 388 40 425 18 m 914 431 l 914 468 l 247 468 q 246 467 244 468 q 247 463 247 465 q 250 446 249 454 q 253 431 251 438 l 914 431 m 307 299 q 335 260 321 279 q 368 224 350 242 q 478 147 415 176 q 629 124 542 117 q 728 148 682 128 q 810 200 774 168 q 846 242 825 213 q 885 299 867 271 l 307 299 z "},"h":{"ha":1111,"x_min":25,"x_max":1085,"o":"m 267 490 l 856 490 l 856 528 l 267 528 l 267 490 m 856 360 l 265 360 q 266 173 265 267 q 267 -1 267 79 l 126 -1 l 126 525 q 79 526 106 528 q 25 528 53 525 l 25 668 l 126 668 l 126 1172 l 267 1172 l 267 668 l 853 668 q 856 913 856 790 q 856 1158 856 1035 l 993 1158 l 993 668 q 1038 667 1014 665 q 1085 668 1061 668 l 1085 528 q 1041 526 1065 525 q 996 528 1017 528 q 994 503 994 515 q 994 478 994 492 l 994 360 l 993 360 q 994 173 993 267 q 993 -1 994 79 l 856 -1 l 856 360 z "},"i":{"ha":844,"x_min":176,"x_max":668,"o":"m 538 142 l 538 1035 l 488 1035 l 488 144 q 513 142 500 143 q 538 142 525 142 m 668 1139 l 668 1035 l 668 142 l 668 38 l 668 1 l 176 1 l 176 142 l 350 142 l 350 1032 q 265 1034 310 1036 q 176 1035 219 1032 l 176 1172 l 668 1172 l 668 1139 z "},"j":{"ha":1001,"x_min":86,"x_max":915,"o":"m 614 417 l 614 146 q 665 261 656 190 q 672 417 675 332 l 614 417 m 614 1060 l 614 538 l 672 538 l 672 1060 l 614 1060 m 483 417 l 232 417 q 226 411 226 417 q 231 291 226 347 q 260 190 235 235 q 326 124 283 150 q 431 93 368 97 q 456 92 443 93 q 483 93 469 92 l 483 417 m 615 0 q 554 -18 588 -11 q 483 -26 521 -25 l 428 -26 q 183 71 268 -11 q 89 300 99 153 q 88 418 86 358 q 89 538 89 478 l 483 538 l 483 1060 q 399 1060 442 1060 q 317 1063 357 1060 l 317 1181 l 915 1181 l 915 1060 l 813 1060 q 810 940 811 1008 q 810 801 810 872 q 810 660 810 729 q 810 539 810 592 q 862 538 833 536 q 915 538 890 539 l 915 417 l 813 417 q 803 242 815 321 q 751 106 790 164 q 694 44 728 71 q 615 0 660 17 z "},"k":{"ha":1118,"x_min":21,"x_max":1097,"o":"m 292 514 q 269 492 281 503 q 249 474 258 481 l 249 0 l 108 0 l 108 467 l 21 467 l 21 601 l 108 601 q 111 888 111 740 q 111 1171 111 1035 l 249 1171 l 249 668 q 260 677 249 667 q 292 707 272 688 l 292 1169 l 422 1169 l 422 832 q 524 931 468 876 q 634 1038 571 976 q 772 1174 697 1100 l 953 1174 q 872 1092 921 1142 q 767 986 822 1042 q 655 874 711 931 q 554 773 599 818 q 481 699 510 728 q 453 671 453 671 q 533 585 463 660 q 610 504 564 553 q 725 385 657 456 q 885 219 793 314 q 1097 0 976 125 l 906 0 l 422 500 l 422 -4 l 292 -4 l 292 514 z "},"l":{"ha":967,"x_min":107,"x_max":860,"o":"m 419 1172 l 419 144 l 860 144 l 860 4 l 107 4 l 107 1172 l 243 1172 l 243 144 l 289 144 l 289 1172 l 419 1172 z "},"m":{"ha":1092,"x_min":36,"x_max":1056,"o":"m 335 376 l 335 -1 l 204 -1 l 204 615 q 189 642 197 629 q 174 668 181 654 l 174 -1 l 36 -1 l 36 1171 q 89 1080 54 1140 q 167 942 124 1019 q 258 778 210 865 q 353 608 307 692 q 403 517 379 561 q 450 433 428 472 l 854 1172 l 1004 1172 l 526 299 q 538 279 533 288 q 546 265 543 271 q 672 489 608 374 q 799 721 735 604 q 926 952 863 838 q 1054 1172 989 1067 l 1056 1172 l 1056 -1 q 987 -1 1024 -1 q 915 -1 950 0 l 915 668 q 824 508 869 593 q 731 335 778 422 q 638 161 685 247 q 546 -1 592 75 q 458 148 501 69 q 371 310 414 226 q 353 343 361 326 q 335 376 344 360 z "},"n":{"ha":1017,"x_min":79,"x_max":938,"o":"m 214 553 l 214 -8 l 79 -8 l 79 688 l 79 1157 l 635 531 l 635 1174 l 765 1174 l 765 383 l 793 351 q 796 348 794 349 q 797 349 797 347 l 797 351 l 797 1174 l 938 1174 l 938 0 l 621 353 l 214 807 l 214 750 l 888 0 l 708 0 l 214 553 z "},"o":{"ha":1140,"x_min":7,"x_max":1132,"o":"m 175 150 q 63 324 108 221 q 10 557 17 428 q 10 628 7 594 q 27 747 14 689 q 64 856 40 806 q 246 1084 129 996 q 536 1192 363 1172 q 569 1192 551 1192 q 603 1192 586 1193 q 715 1172 663 1188 q 813 1132 768 1156 q 897 1078 858 1108 q 968 1013 936 1047 q 1079 844 1033 942 q 1132 615 1125 747 l 1132 572 q 1079 332 1125 439 q 965 153 1033 225 q 806 35 899 82 q 588 -18 714 -11 l 550 -18 q 334 34 426 -11 q 175 150 242 79 m 149 646 l 986 646 q 940 807 975 739 q 851 926 904 875 q 794 973 825 951 q 726 1011 763 994 q 649 1037 690 1028 q 560 1044 607 1046 q 401 1007 471 1042 q 279 921 332 972 q 195 803 231 872 q 149 646 160 733 m 919 332 l 219 332 q 299 231 251 275 q 416 157 349 186 q 571 128 483 128 q 726 158 658 128 q 842 233 793 189 q 919 332 886 275 m 167 463 l 971 463 q 975 481 974 472 q 979 499 976 490 l 158 499 q 158 494 156 499 q 163 478 161 486 q 167 463 164 471 z "},"p":{"ha":1004,"x_min":86,"x_max":924,"o":"m 351 431 l 343 431 l 321 431 q 319 213 321 322 q 318 -1 318 104 l 181 -1 l 181 428 q 134 431 158 432 q 86 431 110 431 l 86 571 l 181 571 l 181 1172 l 539 1172 q 690 1133 622 1160 q 810 1058 757 1107 q 891 947 858 1014 q 918 786 924 879 q 874 641 913 703 q 781 539 835 579 q 692 487 742 511 q 586 447 642 463 q 548 438 568 442 q 508 431 528 433 l 482 431 l 482 -1 l 351 -1 l 351 431 m 482 729 l 482 571 l 503 571 q 543 580 522 572 q 583 594 564 588 q 689 646 642 614 q 760 729 736 678 l 482 729 m 351 729 l 343 729 l 321 729 q 318 725 318 729 l 318 571 l 343 571 l 351 571 l 351 729 m 482 1035 l 482 869 l 771 869 q 736 936 763 908 q 676 983 710 964 q 603 1019 644 1003 q 517 1035 561 1035 l 482 1035 m 351 1035 l 343 1035 l 321 1035 q 318 1031 318 1035 l 318 869 l 343 869 l 351 869 l 351 1035 z "},"q":{"ha":1250,"x_min":-54,"x_max":1304,"o":"m 881 347 q 940 588 940 449 q 920 717 939 657 q 874 825 901 776 q 772 944 833 892 q 631 1019 711 996 q 517 1038 574 1038 q 408 1024 460 1038 q 311 984 356 1010 q 235 926 267 958 q 558 637 399 783 q 881 347 717 490 m 129 781 l 765 210 q 781 222 774 217 q 788 231 788 228 q 754 261 788 231 q 667 341 721 292 q 544 452 613 390 q 403 578 475 514 q 264 702 332 642 q 144 808 196 763 q 129 781 135 794 m 89 640 q 87 610 88 625 q 86 579 86 594 q 106 439 86 503 q 158 324 125 375 q 233 234 190 272 q 321 171 275 196 q 374 147 344 157 q 436 131 403 138 q 643 144 546 113 l 89 640 m 764 38 q 626 -15 697 -1 q 445 -23 538 -35 q 282 22 353 -11 q 55 218 143 89 q -53 543 -33 347 q -53 581 -53 563 q -53 617 -54 599 q -46 682 -51 650 q -32 746 -40 714 q -15 797 -24 772 q 3 846 -7 822 q 188 1081 69 992 q 479 1189 306 1169 l 549 1189 q 826 1090 713 1171 q 1006 882 939 1008 q 1063 733 1040 817 q 1079 556 1085 650 q 1052 388 1075 464 q 989 249 1029 311 l 1029 217 q 1123 142 1060 193 q 1304 0 1186 92 l 1108 0 q 1040 49 1076 24 q 975 96 1004 75 q 907 144 939 121 q 840 89 876 117 q 764 38 804 61 z "},"r":{"ha":1079,"x_min":43,"x_max":1036,"o":"m 439 429 l 439 -1 l 308 -1 l 308 465 l 281 465 q 277 356 278 415 q 276 233 276 296 q 277 110 276 171 q 278 -1 278 49 l 138 -1 l 138 464 l 43 464 l 43 599 l 138 599 l 138 1172 l 506 1172 q 642 1138 579 1160 q 754 1078 706 1115 q 835 989 801 1042 q 875 864 868 936 q 859 722 885 782 q 793 618 833 663 q 697 543 750 572 q 579 492 643 514 q 686 378 621 447 q 828 226 742 318 q 1036 -1 914 133 l 868 -1 q 825 39 854 10 q 756 108 796 68 q 672 193 717 147 q 584 283 628 239 q 503 365 540 326 q 439 429 465 404 m 308 599 l 308 750 l 281 750 q 278 746 278 749 l 278 599 l 308 599 m 439 750 l 439 601 l 475 601 q 510 608 482 601 q 576 632 539 615 q 652 677 614 649 q 717 750 690 706 l 439 750 m 308 883 l 308 1042 l 281 1042 l 281 883 l 308 883 m 439 1042 l 439 883 l 728 883 q 688 953 719 924 q 614 1001 656 982 q 439 1042 540 1039 z "},"s":{"ha":1119,"x_min":21,"x_max":1099,"o":"m 171 1172 l 811 119 l 864 119 q 774 267 847 146 q 695 394 742 318 q 581 581 649 471 q 423 836 513 690 q 217 1172 333 982 l 999 1172 l 999 782 l 874 782 l 874 1047 l 449 1050 q 734 575 613 772 q 938 249 856 378 q 1099 -1 1033 99 l 221 -1 l 221 533 l 342 533 l 342 121 q 499 119 421 119 q 658 119 578 119 l 21 1172 l 171 1172 z "},"t":{"ha":1085,"x_min":40,"x_max":1044,"o":"m 456 879 l 40 879 l 40 1010 l 456 1010 l 456 1033 q 250 1034 354 1035 q 43 1033 146 1033 l 43 1172 l 1040 1172 l 1040 1033 l 596 1033 l 596 1010 l 1044 1010 l 1044 879 l 596 879 q 595 658 596 771 q 594 432 594 544 q 594 210 594 319 q 594 -1 594 100 l 456 -1 l 456 879 z "},"u":{"ha":1111,"x_min":25,"x_max":1085,"o":"m 597 157 q 651 177 626 165 q 696 204 676 189 q 647 258 672 231 q 597 314 622 285 q 489 443 543 376 q 380 575 435 510 q 270 703 325 640 q 160 824 215 767 q 160 788 160 824 q 159 698 160 751 q 158 580 158 644 q 158 459 158 515 q 158 361 158 403 q 160 311 158 319 q 187 244 164 276 q 233 194 210 213 q 308 158 264 171 q 401 140 351 144 q 501 140 450 136 q 597 157 553 144 m 728 1172 l 728 375 q 760 339 756 344 q 767 331 767 333 q 769 335 768 329 q 772 346 774 340 q 769 364 769 351 l 769 1172 l 910 1172 l 910 294 q 900 253 910 271 q 882 217 890 236 q 923 170 894 201 q 983 106 951 139 q 1043 42 1014 72 q 1085 -1 1072 13 l 897 -1 q 844 51 871 22 q 793 104 818 79 q 703 47 756 71 q 590 11 651 24 q 460 -2 528 -1 q 324 10 392 -3 q 126 105 204 33 q 25 294 47 176 l 25 1171 q 65 1127 33 1163 q 142 1039 96 1092 q 245 921 188 986 q 364 786 303 856 q 485 649 425 717 q 597 522 546 581 l 597 1172 l 728 1172 z "},"v":{"ha":1143,"x_min":7,"x_max":1136,"o":"m 397 353 q 279 597 343 465 q 155 858 225 710 q 7 1172 85 1006 l 151 1172 q 226 1023 185 1107 q 311 849 268 939 q 397 670 354 758 q 475 508 439 582 l 786 1172 l 931 1172 l 549 357 q 566 322 560 333 q 574 308 572 310 q 655 473 610 381 q 747 662 700 565 q 837 850 793 758 q 915 1013 881 942 q 972 1128 950 1085 q 993 1172 993 1172 l 1136 1172 q 994 884 1065 1032 q 853 586 924 736 q 714 288 783 436 q 574 -1 644 139 q 491 162 536 71 q 397 353 446 253 z "},"w":{"ha":1092,"x_min":36,"x_max":1056,"o":"m 342 1172 l 342 810 q 444 997 393 904 q 549 1172 496 1089 q 640 1010 594 1094 q 732 840 686 925 q 824 670 778 754 q 915 511 869 586 l 915 1175 q 988 1174 951 1172 q 1056 1172 1024 1176 l 1056 4 q 800 452 926 219 q 549 900 674 685 q 537 881 544 893 q 519 853 529 869 l 996 -1 l 846 -1 l 443 721 q 403 650 424 688 q 358 572 382 613 q 262 402 311 489 q 169 238 213 315 q 90 100 125 161 q 36 8 54 39 l 36 1172 l 174 1172 l 174 511 q 192 543 183 526 q 213 575 201 560 l 213 1172 l 342 1172 z "},"x":{"ha":1199,"x_min":-24,"x_max":1224,"o":"m 136 1172 l 553 625 l 575 661 l 196 1172 l 339 1172 q 390 1107 353 1156 q 485 983 422 1065 q 654 763 547 901 l 960 1172 l 1114 1172 l 732 658 l 1224 -1 l 1085 -1 l 654 554 l 632 521 l 1032 -1 l 858 -1 l 553 404 l 282 1 l 139 0 l 475 507 l -24 1172 l 136 1172 z "},"y":{"ha":1060,"x_min":54,"x_max":1006,"o":"m 147 1044 q 97 1113 121 1081 q 54 1172 74 1146 l 147 1172 l 219 1172 q 315 1042 271 1100 q 367 972 342 1006 q 419 902 393 938 q 474 828 446 867 q 533 746 501 790 q 560 779 538 751 q 613 849 582 807 q 683 941 644 890 q 758 1042 721 992 q 809 1111 785 1078 q 854 1172 833 1144 l 904 1172 l 1006 1172 q 958 1106 982 1139 q 910 1038 933 1072 q 755 823 832 929 q 600 608 678 717 l 600 -1 l 463 -1 q 463 99 463 39 q 463 224 463 158 q 463 356 463 290 q 463 476 463 422 q 463 566 463 531 q 463 606 463 601 q 452 622 461 608 q 426 658 443 635 l 426 -1 l 296 -1 l 296 840 q 222 941 260 889 q 149 1042 185 993 l 147 1042 l 147 1044 z "},"z":{"ha":1163,"x_min":-3,"x_max":1167,"o":"m 890 135 l 890 -1 l 397 -1 l -3 -1 l -3 0 l 671 1033 l 64 1035 l 64 1172 l 951 1171 q 654 712 781 906 q 443 389 528 518 q 274 135 344 239 l 324 135 l 1010 1172 l 1167 1172 l 479 135 l 890 135 z "},"":{"ha":463,"x_min":0,"x_max":0,"o":""},"":{"ha":1389,"x_min":0,"x_max":0,"o":""}}}
